<?xml version="1.0" encoding="utf-8" standalone="no"?>
<!DOCTYPE svg PUBLIC "-//W3C//DTD SVG 1.1//EN"
  "http://www.w3.org/Graphics/SVG/1.1/DTD/svg11.dtd">
<!-- Created with matplotlib (http://matplotlib.org/) -->
<svg height="249.12pt" version="1.1" viewBox="0 0 638.64 249.12" width="638.64pt" xmlns="http://www.w3.org/2000/svg" xmlns:xlink="http://www.w3.org/1999/xlink">
 <defs>
  <style type="text/css">
*{stroke-linecap:butt;stroke-linejoin:round;}
  </style>
 </defs>
 <g id="figure_1">
  <g id="patch_1">
   <path d="M 0 249.12 
L 638.64 249.12 
L 638.64 0 
L 0 0 
z
" style="fill:#ffffff;"/>
  </g>
  <g id="axes_1">
   <g id="patch_2">
    <path d="M 47.898 199.296 
L 632.2536 199.296 
L 632.2536 6.72624 
L 47.898 6.72624 
z
" style="fill:#ffffff;"/>
   </g>
   <g id="patch_3">
    <path clip-path="url(#p1c089d2b89)" d="M 56.888086 199.296 
L 92.848431 199.296 
L 92.848431 199.296 
L 56.888086 199.296 
z
" style="fill:#7fc97f;"/>
   </g>
   <g id="patch_4">
    <path clip-path="url(#p1c089d2b89)" d="M 101.838517 199.296 
L 137.798862 199.296 
L 137.798862 199.296 
L 101.838517 199.296 
z
" style="fill:#7fc97f;"/>
   </g>
   <g id="patch_5">
    <path clip-path="url(#p1c089d2b89)" d="M 146.788948 199.296 
L 182.749292 199.296 
L 182.749292 199.296 
L 146.788948 199.296 
z
" style="fill:#7fc97f;"/>
   </g>
   <g id="patch_6">
    <path clip-path="url(#p1c089d2b89)" d="M 191.739378 199.296 
L 227.699723 199.296 
L 227.699723 199.296 
L 191.739378 199.296 
z
" style="fill:#7fc97f;"/>
   </g>
   <g id="patch_7">
    <path clip-path="url(#p1c089d2b89)" d="M 236.689809 199.296 
L 272.650154 199.296 
L 272.650154 199.296 
L 236.689809 199.296 
z
" style="fill:#7fc97f;"/>
   </g>
   <g id="patch_8">
    <path clip-path="url(#p1c089d2b89)" d="M 281.64024 199.296 
L 317.600585 199.296 
L 317.600585 195.455167 
L 281.64024 195.455167 
z
" style="fill:#7fc97f;"/>
   </g>
   <g id="patch_9">
    <path clip-path="url(#p1c089d2b89)" d="M 326.590671 199.296 
L 362.551015 199.296 
L 362.551015 199.296 
L 326.590671 199.296 
z
" style="fill:#7fc97f;"/>
   </g>
   <g id="patch_10">
    <path clip-path="url(#p1c089d2b89)" d="M 371.541102 199.296 
L 407.501446 199.296 
L 407.501446 199.296 
L 371.541102 199.296 
z
" style="fill:#7fc97f;"/>
   </g>
   <g id="patch_11">
    <path clip-path="url(#p1c089d2b89)" d="M 416.491532 199.296 
L 452.451877 199.296 
L 452.451877 199.296 
L 416.491532 199.296 
z
" style="fill:#7fc97f;"/>
   </g>
   <g id="patch_12">
    <path clip-path="url(#p1c089d2b89)" d="M 461.441963 199.296 
L 497.402308 199.296 
L 497.402308 177.211211 
L 461.441963 177.211211 
z
" style="fill:#7fc97f;"/>
   </g>
   <g id="patch_13">
    <path clip-path="url(#p1c089d2b89)" d="M 506.392394 199.296 
L 542.352738 199.296 
L 542.352738 178.171419 
L 506.392394 178.171419 
z
" style="fill:#7fc97f;"/>
   </g>
   <g id="patch_14">
    <path clip-path="url(#p1c089d2b89)" d="M 551.342825 199.296 
L 587.303169 199.296 
L 587.303169 199.296 
L 551.342825 199.296 
z
" style="fill:#7fc97f;"/>
   </g>
   <g id="patch_15">
    <path clip-path="url(#p1c089d2b89)" d="M 56.888086 199.296 
L 92.848431 199.296 
L 92.848431 64.866848 
L 56.888086 64.866848 
z
" style="fill:#beaed4;"/>
   </g>
   <g id="patch_16">
    <path clip-path="url(#p1c089d2b89)" d="M 101.838517 199.296 
L 137.798862 199.296 
L 137.798862 196.415375 
L 101.838517 196.415375 
z
" style="fill:#beaed4;"/>
   </g>
   <g id="patch_17">
    <path clip-path="url(#p1c089d2b89)" d="M 146.788948 199.296 
L 182.749292 199.296 
L 182.749292 199.296 
L 146.788948 199.296 
z
" style="fill:#beaed4;"/>
   </g>
   <g id="patch_18">
    <path clip-path="url(#p1c089d2b89)" d="M 191.739378 199.296 
L 227.699723 199.296 
L 227.699723 103.275177 
L 191.739378 103.275177 
z
" style="fill:#beaed4;"/>
   </g>
   <g id="patch_19">
    <path clip-path="url(#p1c089d2b89)" d="M 236.689809 199.296 
L 272.650154 199.296 
L 272.650154 157.046838 
L 236.689809 157.046838 
z
" style="fill:#beaed4;"/>
   </g>
   <g id="patch_20">
    <path clip-path="url(#p1c089d2b89)" d="M 281.64024 195.455167 
L 317.600585 195.455167 
L 317.600585 152.245797 
L 281.64024 152.245797 
z
" style="fill:#beaed4;"/>
   </g>
   <g id="patch_21">
    <path clip-path="url(#p1c089d2b89)" d="M 326.590671 199.296 
L 362.551015 199.296 
L 362.551015 199.296 
L 326.590671 199.296 
z
" style="fill:#beaed4;"/>
   </g>
   <g id="patch_22">
    <path clip-path="url(#p1c089d2b89)" d="M 371.541102 199.296 
L 407.501446 199.296 
L 407.501446 199.296 
L 371.541102 199.296 
z
" style="fill:#beaed4;"/>
   </g>
   <g id="patch_23">
    <path clip-path="url(#p1c089d2b89)" d="M 416.491532 199.296 
L 452.451877 199.296 
L 452.451877 102.314969 
L 416.491532 102.314969 
z
" style="fill:#beaed4;"/>
   </g>
   <g id="patch_24">
    <path clip-path="url(#p1c089d2b89)" d="M 461.441963 177.211211 
L 497.402308 177.211211 
L 497.402308 177.211211 
L 461.441963 177.211211 
z
" style="fill:#beaed4;"/>
   </g>
   <g id="patch_25">
    <path clip-path="url(#p1c089d2b89)" d="M 506.392394 178.171419 
L 542.352738 178.171419 
L 542.352738 53.344349 
L 506.392394 53.344349 
z
" style="fill:#beaed4;"/>
   </g>
   <g id="patch_26">
    <path clip-path="url(#p1c089d2b89)" d="M 551.342825 199.296 
L 587.303169 199.296 
L 587.303169 173.370378 
L 551.342825 173.370378 
z
" style="fill:#beaed4;"/>
   </g>
   <g id="patch_27">
    <path clip-path="url(#p1c089d2b89)" d="M 56.888086 64.866848 
L 92.848431 64.866848 
L 92.848431 64.866848 
L 56.888086 64.866848 
z
" style="fill:#f0027f;"/>
   </g>
   <g id="patch_28">
    <path clip-path="url(#p1c089d2b89)" d="M 101.838517 196.415375 
L 137.798862 196.415375 
L 137.798862 196.415375 
L 101.838517 196.415375 
z
" style="fill:#f0027f;"/>
   </g>
   <g id="patch_29">
    <path clip-path="url(#p1c089d2b89)" d="M 146.788948 199.296 
L 182.749292 199.296 
L 182.749292 199.296 
L 146.788948 199.296 
z
" style="fill:#f0027f;"/>
   </g>
   <g id="patch_30">
    <path clip-path="url(#p1c089d2b89)" d="M 191.739378 103.275177 
L 227.699723 103.275177 
L 227.699723 103.275177 
L 191.739378 103.275177 
z
" style="fill:#f0027f;"/>
   </g>
   <g id="patch_31">
    <path clip-path="url(#p1c089d2b89)" d="M 236.689809 157.046838 
L 272.650154 157.046838 
L 272.650154 157.046838 
L 236.689809 157.046838 
z
" style="fill:#f0027f;"/>
   </g>
   <g id="patch_32">
    <path clip-path="url(#p1c089d2b89)" d="M 281.64024 152.245797 
L 317.600585 152.245797 
L 317.600585 152.245797 
L 281.64024 152.245797 
z
" style="fill:#f0027f;"/>
   </g>
   <g id="patch_33">
    <path clip-path="url(#p1c089d2b89)" d="M 326.590671 199.296 
L 362.551015 199.296 
L 362.551015 199.296 
L 326.590671 199.296 
z
" style="fill:#f0027f;"/>
   </g>
   <g id="patch_34">
    <path clip-path="url(#p1c089d2b89)" d="M 371.541102 199.296 
L 407.501446 199.296 
L 407.501446 199.296 
L 371.541102 199.296 
z
" style="fill:#f0027f;"/>
   </g>
   <g id="patch_35">
    <path clip-path="url(#p1c089d2b89)" d="M 416.491532 102.314969 
L 452.451877 102.314969 
L 452.451877 102.314969 
L 416.491532 102.314969 
z
" style="fill:#f0027f;"/>
   </g>
   <g id="patch_36">
    <path clip-path="url(#p1c089d2b89)" d="M 461.441963 177.211211 
L 497.402308 177.211211 
L 497.402308 177.211211 
L 461.441963 177.211211 
z
" style="fill:#f0027f;"/>
   </g>
   <g id="patch_37">
    <path clip-path="url(#p1c089d2b89)" d="M 506.392394 53.344349 
L 542.352738 53.344349 
L 542.352738 53.344349 
L 506.392394 53.344349 
z
" style="fill:#f0027f;"/>
   </g>
   <g id="patch_38">
    <path clip-path="url(#p1c089d2b89)" d="M 551.342825 173.370378 
L 587.303169 173.370378 
L 587.303169 173.370378 
L 551.342825 173.370378 
z
" style="fill:#f0027f;"/>
   </g>
   <g id="patch_39">
    <path clip-path="url(#p1c089d2b89)" d="M 56.888086 64.866848 
L 92.848431 64.866848 
L 92.848431 37.981018 
L 56.888086 37.981018 
z
" style="fill:#386cb0;"/>
   </g>
   <g id="patch_40">
    <path clip-path="url(#p1c089d2b89)" d="M 101.838517 196.415375 
L 137.798862 196.415375 
L 137.798862 172.41017 
L 101.838517 172.41017 
z
" style="fill:#386cb0;"/>
   </g>
   <g id="patch_41">
    <path clip-path="url(#p1c089d2b89)" d="M 146.788948 199.296 
L 182.749292 199.296 
L 182.749292 141.683506 
L 146.788948 141.683506 
z
" style="fill:#386cb0;"/>
   </g>
   <g id="patch_42">
    <path clip-path="url(#p1c089d2b89)" d="M 191.739378 103.275177 
L 227.699723 103.275177 
L 227.699723 103.275177 
L 191.739378 103.275177 
z
" style="fill:#386cb0;"/>
   </g>
   <g id="patch_43">
    <path clip-path="url(#p1c089d2b89)" d="M 236.689809 157.046838 
L 272.650154 157.046838 
L 272.650154 157.046838 
L 236.689809 157.046838 
z
" style="fill:#386cb0;"/>
   </g>
   <g id="patch_44">
    <path clip-path="url(#p1c089d2b89)" d="M 281.64024 152.245797 
L 317.600585 152.245797 
L 317.600585 77.349555 
L 281.64024 77.349555 
z
" style="fill:#386cb0;"/>
   </g>
   <g id="patch_45">
    <path clip-path="url(#p1c089d2b89)" d="M 326.590671 199.296 
L 362.551015 199.296 
L 362.551015 138.802882 
L 326.590671 138.802882 
z
" style="fill:#386cb0;"/>
   </g>
   <g id="patch_46">
    <path clip-path="url(#p1c089d2b89)" d="M 371.541102 199.296 
L 407.501446 199.296 
L 407.501446 183.932668 
L 371.541102 183.932668 
z
" style="fill:#386cb0;"/>
   </g>
   <g id="patch_47">
    <path clip-path="url(#p1c089d2b89)" d="M 416.491532 102.314969 
L 452.451877 102.314969 
L 452.451877 95.593511 
L 416.491532 95.593511 
z
" style="fill:#386cb0;"/>
   </g>
   <g id="patch_48">
    <path clip-path="url(#p1c089d2b89)" d="M 461.441963 177.211211 
L 497.402308 177.211211 
L 497.402308 158.007046 
L 461.441963 158.007046 
z
" style="fill:#386cb0;"/>
   </g>
   <g id="patch_49">
    <path clip-path="url(#p1c089d2b89)" d="M 506.392394 53.344349 
L 542.352738 53.344349 
L 542.352738 15.896229 
L 506.392394 15.896229 
z
" style="fill:#386cb0;"/>
   </g>
   <g id="patch_50">
    <path clip-path="url(#p1c089d2b89)" d="M 551.342825 173.370378 
L 587.303169 173.370378 
L 587.303169 173.370378 
L 551.342825 173.370378 
z
" style="fill:#386cb0;"/>
   </g>
   <g id="matplotlib.axis_1">
    <g id="xtick_1">
     <g id="line2d_1">
      <defs>
       <path d="M 0 0 
L 0 3.5 
" id="m4107613833" style="stroke:#000000;stroke-width:0.8;"/>
      </defs>
      <g>
       <use style="stroke:#000000;stroke-width:0.8;" x="74.868258" xlink:href="#m4107613833" y="199.296"/>
      </g>
     </g>
     <g id="text_1">
      <!-- LEU_54 -->
      <defs>
       <path d="M 9.8125 72.90625 
L 19.671875 72.90625 
L 19.671875 8.296875 
L 55.171875 8.296875 
L 55.171875 0 
L 9.8125 0 
z
" id="DejaVuSans-4c"/>
       <path d="M 9.8125 72.90625 
L 55.90625 72.90625 
L 55.90625 64.59375 
L 19.671875 64.59375 
L 19.671875 43.015625 
L 54.390625 43.015625 
L 54.390625 34.71875 
L 19.671875 34.71875 
L 19.671875 8.296875 
L 56.78125 8.296875 
L 56.78125 0 
L 9.8125 0 
z
" id="DejaVuSans-45"/>
       <path d="M 8.6875 72.90625 
L 18.609375 72.90625 
L 18.609375 28.609375 
Q 18.609375 16.890625 22.84375 11.734375 
Q 27.09375 6.59375 36.625 6.59375 
Q 46.09375 6.59375 50.34375 11.734375 
Q 54.59375 16.890625 54.59375 28.609375 
L 54.59375 72.90625 
L 64.5 72.90625 
L 64.5 27.390625 
Q 64.5 13.140625 57.4375 5.859375 
Q 50.390625 -1.421875 36.625 -1.421875 
Q 22.796875 -1.421875 15.734375 5.859375 
Q 8.6875 13.140625 8.6875 27.390625 
z
" id="DejaVuSans-55"/>
       <path d="M 50.984375 -16.609375 
L 50.984375 -23.578125 
L -0.984375 -23.578125 
L -0.984375 -16.609375 
z
" id="DejaVuSans-5f"/>
       <path d="M 10.796875 72.90625 
L 49.515625 72.90625 
L 49.515625 64.59375 
L 19.828125 64.59375 
L 19.828125 46.734375 
Q 21.96875 47.46875 24.109375 47.828125 
Q 26.265625 48.1875 28.421875 48.1875 
Q 40.625 48.1875 47.75 41.5 
Q 54.890625 34.8125 54.890625 23.390625 
Q 54.890625 11.625 47.5625 5.09375 
Q 40.234375 -1.421875 26.90625 -1.421875 
Q 22.3125 -1.421875 17.546875 -0.640625 
Q 12.796875 0.140625 7.71875 1.703125 
L 7.71875 11.625 
Q 12.109375 9.234375 16.796875 8.0625 
Q 21.484375 6.890625 26.703125 6.890625 
Q 35.15625 6.890625 40.078125 11.328125 
Q 45.015625 15.765625 45.015625 23.390625 
Q 45.015625 31 40.078125 35.4375 
Q 35.15625 39.890625 26.703125 39.890625 
Q 22.75 39.890625 18.8125 39.015625 
Q 14.890625 38.140625 10.796875 36.28125 
z
" id="DejaVuSans-35"/>
       <path d="M 37.796875 64.3125 
L 12.890625 25.390625 
L 37.796875 25.390625 
z
M 35.203125 72.90625 
L 47.609375 72.90625 
L 47.609375 25.390625 
L 58.015625 25.390625 
L 58.015625 17.1875 
L 47.609375 17.1875 
L 47.609375 0 
L 37.796875 0 
L 37.796875 17.1875 
L 4.890625 17.1875 
L 4.890625 26.703125 
z
" id="DejaVuSans-34"/>
      </defs>
      <g transform="translate(57.424985 232.362894)rotate(-45)scale(0.0833 -0.0833)">
       <use xlink:href="#DejaVuSans-4c"/>
       <use x="55.712891" xlink:href="#DejaVuSans-45"/>
       <use x="118.896484" xlink:href="#DejaVuSans-55"/>
       <use x="192.089844" xlink:href="#DejaVuSans-5f"/>
       <use x="242.089844" xlink:href="#DejaVuSans-35"/>
       <use x="305.712891" xlink:href="#DejaVuSans-34"/>
      </g>
     </g>
    </g>
    <g id="xtick_2">
     <g id="line2d_2">
      <g>
       <use style="stroke:#000000;stroke-width:0.8;" x="119.818689" xlink:href="#m4107613833" y="199.296"/>
      </g>
     </g>
     <g id="text_2">
      <!-- PHE_55 -->
      <defs>
       <path d="M 19.671875 64.796875 
L 19.671875 37.40625 
L 32.078125 37.40625 
Q 38.96875 37.40625 42.71875 40.96875 
Q 46.484375 44.53125 46.484375 51.125 
Q 46.484375 57.671875 42.71875 61.234375 
Q 38.96875 64.796875 32.078125 64.796875 
z
M 9.8125 72.90625 
L 32.078125 72.90625 
Q 44.34375 72.90625 50.609375 67.359375 
Q 56.890625 61.8125 56.890625 51.125 
Q 56.890625 40.328125 50.609375 34.8125 
Q 44.34375 29.296875 32.078125 29.296875 
L 19.671875 29.296875 
L 19.671875 0 
L 9.8125 0 
z
" id="DejaVuSans-50"/>
       <path d="M 9.8125 72.90625 
L 19.671875 72.90625 
L 19.671875 43.015625 
L 55.515625 43.015625 
L 55.515625 72.90625 
L 65.375 72.90625 
L 65.375 0 
L 55.515625 0 
L 55.515625 34.71875 
L 19.671875 34.71875 
L 19.671875 0 
L 9.8125 0 
z
" id="DejaVuSans-48"/>
      </defs>
      <g transform="translate(101.987031 232.751279)rotate(-45)scale(0.0833 -0.0833)">
       <use xlink:href="#DejaVuSans-50"/>
       <use x="60.302734" xlink:href="#DejaVuSans-48"/>
       <use x="135.498047" xlink:href="#DejaVuSans-45"/>
       <use x="198.681641" xlink:href="#DejaVuSans-5f"/>
       <use x="248.681641" xlink:href="#DejaVuSans-35"/>
       <use x="312.304688" xlink:href="#DejaVuSans-35"/>
      </g>
     </g>
    </g>
    <g id="xtick_3">
     <g id="line2d_3">
      <g>
       <use style="stroke:#000000;stroke-width:0.8;" x="164.76912" xlink:href="#m4107613833" y="199.296"/>
      </g>
     </g>
     <g id="text_3">
      <!-- GLN_59 -->
      <defs>
       <path d="M 59.515625 10.40625 
L 59.515625 29.984375 
L 43.40625 29.984375 
L 43.40625 38.09375 
L 69.28125 38.09375 
L 69.28125 6.78125 
Q 63.578125 2.734375 56.6875 0.65625 
Q 49.8125 -1.421875 42 -1.421875 
Q 24.90625 -1.421875 15.25 8.5625 
Q 5.609375 18.5625 5.609375 36.375 
Q 5.609375 54.25 15.25 64.234375 
Q 24.90625 74.21875 42 74.21875 
Q 49.125 74.21875 55.546875 72.453125 
Q 61.96875 70.703125 67.390625 67.28125 
L 67.390625 56.78125 
Q 61.921875 61.421875 55.765625 63.765625 
Q 49.609375 66.109375 42.828125 66.109375 
Q 29.4375 66.109375 22.71875 58.640625 
Q 16.015625 51.171875 16.015625 36.375 
Q 16.015625 21.625 22.71875 14.15625 
Q 29.4375 6.6875 42.828125 6.6875 
Q 48.046875 6.6875 52.140625 7.59375 
Q 56.25 8.5 59.515625 10.40625 
z
" id="DejaVuSans-47"/>
       <path d="M 9.8125 72.90625 
L 23.09375 72.90625 
L 55.421875 11.921875 
L 55.421875 72.90625 
L 64.984375 72.90625 
L 64.984375 0 
L 51.703125 0 
L 19.390625 60.984375 
L 19.390625 0 
L 9.8125 0 
z
" id="DejaVuSans-4e"/>
       <path d="M 10.984375 1.515625 
L 10.984375 10.5 
Q 14.703125 8.734375 18.5 7.8125 
Q 22.3125 6.890625 25.984375 6.890625 
Q 35.75 6.890625 40.890625 13.453125 
Q 46.046875 20.015625 46.78125 33.40625 
Q 43.953125 29.203125 39.59375 26.953125 
Q 35.25 24.703125 29.984375 24.703125 
Q 19.046875 24.703125 12.671875 31.3125 
Q 6.296875 37.9375 6.296875 49.421875 
Q 6.296875 60.640625 12.9375 67.421875 
Q 19.578125 74.21875 30.609375 74.21875 
Q 43.265625 74.21875 49.921875 64.515625 
Q 56.59375 54.828125 56.59375 36.375 
Q 56.59375 19.140625 48.40625 8.859375 
Q 40.234375 -1.421875 26.421875 -1.421875 
Q 22.703125 -1.421875 18.890625 -0.6875 
Q 15.09375 0.046875 10.984375 1.515625 
z
M 30.609375 32.421875 
Q 37.25 32.421875 41.125 36.953125 
Q 45.015625 41.5 45.015625 49.421875 
Q 45.015625 57.28125 41.125 61.84375 
Q 37.25 66.40625 30.609375 66.40625 
Q 23.96875 66.40625 20.09375 61.84375 
Q 16.21875 57.28125 16.21875 49.421875 
Q 16.21875 41.5 20.09375 36.953125 
Q 23.96875 32.421875 30.609375 32.421875 
z
" id="DejaVuSans-39"/>
      </defs>
      <g transform="translate(146.447839 233.360546)rotate(-45)scale(0.0833 -0.0833)">
       <use xlink:href="#DejaVuSans-47"/>
       <use x="77.490234" xlink:href="#DejaVuSans-4c"/>
       <use x="133.203125" xlink:href="#DejaVuSans-4e"/>
       <use x="208.007812" xlink:href="#DejaVuSans-5f"/>
       <use x="258.007812" xlink:href="#DejaVuSans-35"/>
       <use x="321.630859" xlink:href="#DejaVuSans-39"/>
      </g>
     </g>
    </g>
    <g id="xtick_4">
     <g id="line2d_4">
      <g>
       <use style="stroke:#000000;stroke-width:0.8;" x="209.719551" xlink:href="#m4107613833" y="199.296"/>
      </g>
     </g>
     <g id="text_4">
      <!-- ILE_61 -->
      <defs>
       <path d="M 9.8125 72.90625 
L 19.671875 72.90625 
L 19.671875 0 
L 9.8125 0 
z
" id="DejaVuSans-49"/>
       <path d="M 33.015625 40.375 
Q 26.375 40.375 22.484375 35.828125 
Q 18.609375 31.296875 18.609375 23.390625 
Q 18.609375 15.53125 22.484375 10.953125 
Q 26.375 6.390625 33.015625 6.390625 
Q 39.65625 6.390625 43.53125 10.953125 
Q 47.40625 15.53125 47.40625 23.390625 
Q 47.40625 31.296875 43.53125 35.828125 
Q 39.65625 40.375 33.015625 40.375 
z
M 52.59375 71.296875 
L 52.59375 62.3125 
Q 48.875 64.0625 45.09375 64.984375 
Q 41.3125 65.921875 37.59375 65.921875 
Q 27.828125 65.921875 22.671875 59.328125 
Q 17.53125 52.734375 16.796875 39.40625 
Q 19.671875 43.65625 24.015625 45.921875 
Q 28.375 48.1875 33.59375 48.1875 
Q 44.578125 48.1875 50.953125 41.515625 
Q 57.328125 34.859375 57.328125 23.390625 
Q 57.328125 12.15625 50.6875 5.359375 
Q 44.046875 -1.421875 33.015625 -1.421875 
Q 20.359375 -1.421875 13.671875 8.265625 
Q 6.984375 17.96875 6.984375 36.375 
Q 6.984375 53.65625 15.1875 63.9375 
Q 23.390625 74.21875 37.203125 74.21875 
Q 40.921875 74.21875 44.703125 73.484375 
Q 48.484375 72.75 52.59375 71.296875 
z
" id="DejaVuSans-36"/>
       <path d="M 12.40625 8.296875 
L 28.515625 8.296875 
L 28.515625 63.921875 
L 10.984375 60.40625 
L 10.984375 69.390625 
L 28.421875 72.90625 
L 38.28125 72.90625 
L 38.28125 8.296875 
L 54.390625 8.296875 
L 54.390625 0 
L 12.40625 0 
z
" id="DejaVuSans-31"/>
      </defs>
      <g transform="translate(194.90938 229.849435)rotate(-45)scale(0.0833 -0.0833)">
       <use xlink:href="#DejaVuSans-49"/>
       <use x="29.492188" xlink:href="#DejaVuSans-4c"/>
       <use x="85.205078" xlink:href="#DejaVuSans-45"/>
       <use x="148.388672" xlink:href="#DejaVuSans-5f"/>
       <use x="198.388672" xlink:href="#DejaVuSans-36"/>
       <use x="262.011719" xlink:href="#DejaVuSans-31"/>
      </g>
     </g>
    </g>
    <g id="xtick_5">
     <g id="line2d_5">
      <g>
       <use style="stroke:#000000;stroke-width:0.8;" x="254.669982" xlink:href="#m4107613833" y="199.296"/>
      </g>
     </g>
     <g id="text_5">
      <!-- MET_62 -->
      <defs>
       <path d="M 9.8125 72.90625 
L 24.515625 72.90625 
L 43.109375 23.296875 
L 61.8125 72.90625 
L 76.515625 72.90625 
L 76.515625 0 
L 66.890625 0 
L 66.890625 64.015625 
L 48.09375 14.015625 
L 38.1875 14.015625 
L 19.390625 64.015625 
L 19.390625 0 
L 9.8125 0 
z
" id="DejaVuSans-4d"/>
       <path d="M -0.296875 72.90625 
L 61.375 72.90625 
L 61.375 64.59375 
L 35.5 64.59375 
L 35.5 0 
L 25.59375 0 
L 25.59375 64.59375 
L -0.296875 64.59375 
z
" id="DejaVuSans-54"/>
       <path d="M 19.1875 8.296875 
L 53.609375 8.296875 
L 53.609375 0 
L 7.328125 0 
L 7.328125 8.296875 
Q 12.9375 14.109375 22.625 23.890625 
Q 32.328125 33.6875 34.8125 36.53125 
Q 39.546875 41.84375 41.421875 45.53125 
Q 43.3125 49.21875 43.3125 52.78125 
Q 43.3125 58.59375 39.234375 62.25 
Q 35.15625 65.921875 28.609375 65.921875 
Q 23.96875 65.921875 18.8125 64.3125 
Q 13.671875 62.703125 7.8125 59.421875 
L 7.8125 69.390625 
Q 13.765625 71.78125 18.9375 73 
Q 24.125 74.21875 28.421875 74.21875 
Q 39.75 74.21875 46.484375 68.546875 
Q 53.21875 62.890625 53.21875 53.421875 
Q 53.21875 48.921875 51.53125 44.890625 
Q 49.859375 40.875 45.40625 35.40625 
Q 44.1875 33.984375 37.640625 27.21875 
Q 31.109375 20.453125 19.1875 8.296875 
z
" id="DejaVuSans-32"/>
      </defs>
      <g transform="translate(236.199604 233.509642)rotate(-45)scale(0.0833 -0.0833)">
       <use xlink:href="#DejaVuSans-4d"/>
       <use x="86.279297" xlink:href="#DejaVuSans-45"/>
       <use x="149.462891" xlink:href="#DejaVuSans-54"/>
       <use x="210.546875" xlink:href="#DejaVuSans-5f"/>
       <use x="260.546875" xlink:href="#DejaVuSans-36"/>
       <use x="324.169922" xlink:href="#DejaVuSans-32"/>
      </g>
     </g>
    </g>
    <g id="xtick_6">
     <g id="line2d_6">
      <g>
       <use style="stroke:#000000;stroke-width:0.8;" x="299.620412" xlink:href="#m4107613833" y="199.296"/>
      </g>
     </g>
     <g id="text_6">
      <!-- TYR_67 -->
      <defs>
       <path d="M -0.203125 72.90625 
L 10.40625 72.90625 
L 30.609375 42.921875 
L 50.6875 72.90625 
L 61.28125 72.90625 
L 35.5 34.71875 
L 35.5 0 
L 25.59375 0 
L 25.59375 34.71875 
z
" id="DejaVuSans-59"/>
       <path d="M 44.390625 34.1875 
Q 47.5625 33.109375 50.5625 29.59375 
Q 53.5625 26.078125 56.59375 19.921875 
L 66.609375 0 
L 56 0 
L 46.6875 18.703125 
Q 43.0625 26.03125 39.671875 28.421875 
Q 36.28125 30.8125 30.421875 30.8125 
L 19.671875 30.8125 
L 19.671875 0 
L 9.8125 0 
L 9.8125 72.90625 
L 32.078125 72.90625 
Q 44.578125 72.90625 50.734375 67.671875 
Q 56.890625 62.453125 56.890625 51.90625 
Q 56.890625 45.015625 53.6875 40.46875 
Q 50.484375 35.9375 44.390625 34.1875 
z
M 19.671875 64.796875 
L 19.671875 38.921875 
L 32.078125 38.921875 
Q 39.203125 38.921875 42.84375 42.21875 
Q 46.484375 45.515625 46.484375 51.90625 
Q 46.484375 58.296875 42.84375 61.546875 
Q 39.203125 64.796875 32.078125 64.796875 
z
" id="DejaVuSans-52"/>
       <path d="M 8.203125 72.90625 
L 55.078125 72.90625 
L 55.078125 68.703125 
L 28.609375 0 
L 18.3125 0 
L 43.21875 64.59375 
L 8.203125 64.59375 
z
" id="DejaVuSans-37"/>
      </defs>
      <g transform="translate(282.263651 232.396026)rotate(-45)scale(0.0833 -0.0833)">
       <use xlink:href="#DejaVuSans-54"/>
       <use x="61.083984" xlink:href="#DejaVuSans-59"/>
       <use x="122.167969" xlink:href="#DejaVuSans-52"/>
       <use x="191.650391" xlink:href="#DejaVuSans-5f"/>
       <use x="241.650391" xlink:href="#DejaVuSans-36"/>
       <use x="305.273438" xlink:href="#DejaVuSans-37"/>
      </g>
     </g>
    </g>
    <g id="xtick_7">
     <g id="line2d_7">
      <g>
       <use style="stroke:#000000;stroke-width:0.8;" x="344.570843" xlink:href="#m4107613833" y="199.296"/>
      </g>
     </g>
     <g id="text_7">
      <!-- GLU_69 -->
      <g transform="translate(326.349879 233.260229)rotate(-45)scale(0.0833 -0.0833)">
       <use xlink:href="#DejaVuSans-47"/>
       <use x="77.490234" xlink:href="#DejaVuSans-4c"/>
       <use x="133.125" xlink:href="#DejaVuSans-55"/>
       <use x="206.318359" xlink:href="#DejaVuSans-5f"/>
       <use x="256.318359" xlink:href="#DejaVuSans-36"/>
       <use x="319.941406" xlink:href="#DejaVuSans-39"/>
      </g>
     </g>
    </g>
    <g id="xtick_8">
     <g id="line2d_8">
      <g>
       <use style="stroke:#000000;stroke-width:0.8;" x="389.521274" xlink:href="#m4107613833" y="199.296"/>
      </g>
     </g>
     <g id="text_8">
      <!-- HIS_73 -->
      <defs>
       <path d="M 53.515625 70.515625 
L 53.515625 60.890625 
Q 47.90625 63.578125 42.921875 64.890625 
Q 37.9375 66.21875 33.296875 66.21875 
Q 25.25 66.21875 20.875 63.09375 
Q 16.5 59.96875 16.5 54.203125 
Q 16.5 49.359375 19.40625 46.890625 
Q 22.3125 44.4375 30.421875 42.921875 
L 36.375 41.703125 
Q 47.40625 39.59375 52.65625 34.296875 
Q 57.90625 29 57.90625 20.125 
Q 57.90625 9.515625 50.796875 4.046875 
Q 43.703125 -1.421875 29.984375 -1.421875 
Q 24.8125 -1.421875 18.96875 -0.25 
Q 13.140625 0.921875 6.890625 3.21875 
L 6.890625 13.375 
Q 12.890625 10.015625 18.65625 8.296875 
Q 24.421875 6.59375 29.984375 6.59375 
Q 38.421875 6.59375 43.015625 9.90625 
Q 47.609375 13.234375 47.609375 19.390625 
Q 47.609375 24.75 44.3125 27.78125 
Q 41.015625 30.8125 33.5 32.328125 
L 27.484375 33.5 
Q 16.453125 35.6875 11.515625 40.375 
Q 6.59375 45.0625 6.59375 53.421875 
Q 6.59375 63.09375 13.40625 68.65625 
Q 20.21875 74.21875 32.171875 74.21875 
Q 37.3125 74.21875 42.625 73.28125 
Q 47.953125 72.359375 53.515625 70.515625 
z
" id="DejaVuSans-53"/>
       <path d="M 40.578125 39.3125 
Q 47.65625 37.796875 51.625 33 
Q 55.609375 28.21875 55.609375 21.1875 
Q 55.609375 10.40625 48.1875 4.484375 
Q 40.765625 -1.421875 27.09375 -1.421875 
Q 22.515625 -1.421875 17.65625 -0.515625 
Q 12.796875 0.390625 7.625 2.203125 
L 7.625 11.71875 
Q 11.71875 9.328125 16.59375 8.109375 
Q 21.484375 6.890625 26.8125 6.890625 
Q 36.078125 6.890625 40.9375 10.546875 
Q 45.796875 14.203125 45.796875 21.1875 
Q 45.796875 27.640625 41.28125 31.265625 
Q 36.765625 34.90625 28.71875 34.90625 
L 20.21875 34.90625 
L 20.21875 43.015625 
L 29.109375 43.015625 
Q 36.375 43.015625 40.234375 45.921875 
Q 44.09375 48.828125 44.09375 54.296875 
Q 44.09375 59.90625 40.109375 62.90625 
Q 36.140625 65.921875 28.71875 65.921875 
Q 24.65625 65.921875 20.015625 65.03125 
Q 15.375 64.15625 9.8125 62.3125 
L 9.8125 71.09375 
Q 15.4375 72.65625 20.34375 73.4375 
Q 25.25 74.21875 29.59375 74.21875 
Q 40.828125 74.21875 47.359375 69.109375 
Q 53.90625 64.015625 53.90625 55.328125 
Q 53.90625 49.265625 50.4375 45.09375 
Q 46.96875 40.921875 40.578125 39.3125 
z
" id="DejaVuSans-33"/>
      </defs>
      <g transform="translate(373.545948 231.01459)rotate(-45)scale(0.0833 -0.0833)">
       <use xlink:href="#DejaVuSans-48"/>
       <use x="75.195312" xlink:href="#DejaVuSans-49"/>
       <use x="104.6875" xlink:href="#DejaVuSans-53"/>
       <use x="168.164062" xlink:href="#DejaVuSans-5f"/>
       <use x="218.164062" xlink:href="#DejaVuSans-37"/>
       <use x="281.787109" xlink:href="#DejaVuSans-33"/>
      </g>
     </g>
    </g>
    <g id="xtick_9">
     <g id="line2d_9">
      <g>
       <use style="stroke:#000000;stroke-width:0.8;" x="434.471705" xlink:href="#m4107613833" y="199.296"/>
      </g>
     </g>
     <g id="text_9">
      <!-- VAL_93 -->
      <defs>
       <path d="M 28.609375 0 
L 0.78125 72.90625 
L 11.078125 72.90625 
L 34.1875 11.53125 
L 57.328125 72.90625 
L 67.578125 72.90625 
L 39.796875 0 
z
" id="DejaVuSans-56"/>
       <path d="M 34.1875 63.1875 
L 20.796875 26.90625 
L 47.609375 26.90625 
z
M 28.609375 72.90625 
L 39.796875 72.90625 
L 67.578125 0 
L 57.328125 0 
L 50.6875 18.703125 
L 17.828125 18.703125 
L 11.1875 0 
L 0.78125 0 
z
" id="DejaVuSans-41"/>
      </defs>
      <g transform="translate(417.068006 232.442964)rotate(-45)scale(0.0833 -0.0833)">
       <use xlink:href="#DejaVuSans-56"/>
       <use x="68.314453" xlink:href="#DejaVuSans-41"/>
       <use x="136.722656" xlink:href="#DejaVuSans-4c"/>
       <use x="192.435547" xlink:href="#DejaVuSans-5f"/>
       <use x="242.435547" xlink:href="#DejaVuSans-39"/>
       <use x="306.058594" xlink:href="#DejaVuSans-33"/>
      </g>
     </g>
    </g>
    <g id="xtick_10">
     <g id="line2d_10">
      <g>
       <use style="stroke:#000000;stroke-width:0.8;" x="479.422135" xlink:href="#m4107613833" y="199.296"/>
      </g>
     </g>
     <g id="text_10">
      <!-- LYS_94 -->
      <g transform="translate(462.746428 231.714972)rotate(-45)scale(0.0833 -0.0833)">
       <use xlink:href="#DejaVuSans-4c"/>
       <use x="55.509766" xlink:href="#DejaVuSans-59"/>
       <use x="116.59375" xlink:href="#DejaVuSans-53"/>
       <use x="180.070312" xlink:href="#DejaVuSans-5f"/>
       <use x="230.070312" xlink:href="#DejaVuSans-39"/>
       <use x="293.693359" xlink:href="#DejaVuSans-34"/>
      </g>
     </g>
    </g>
    <g id="xtick_11">
     <g id="line2d_11">
      <g>
       <use style="stroke:#000000;stroke-width:0.8;" x="524.372566" xlink:href="#m4107613833" y="199.296"/>
      </g>
     </g>
     <g id="text_11">
      <!-- HIS_96 -->
      <g transform="translate(508.397241 231.01459)rotate(-45)scale(0.0833 -0.0833)">
       <use xlink:href="#DejaVuSans-48"/>
       <use x="75.195312" xlink:href="#DejaVuSans-49"/>
       <use x="104.6875" xlink:href="#DejaVuSans-53"/>
       <use x="168.164062" xlink:href="#DejaVuSans-5f"/>
       <use x="218.164062" xlink:href="#DejaVuSans-39"/>
       <use x="281.787109" xlink:href="#DejaVuSans-36"/>
      </g>
     </g>
    </g>
    <g id="xtick_12">
     <g id="line2d_12">
      <g>
       <use style="stroke:#000000;stroke-width:0.8;" x="569.322997" xlink:href="#m4107613833" y="199.296"/>
      </g>
     </g>
     <g id="text_12">
      <!-- ILE_99 -->
      <g transform="translate(554.512827 229.849435)rotate(-45)scale(0.0833 -0.0833)">
       <use xlink:href="#DejaVuSans-49"/>
       <use x="29.492188" xlink:href="#DejaVuSans-4c"/>
       <use x="85.205078" xlink:href="#DejaVuSans-45"/>
       <use x="148.388672" xlink:href="#DejaVuSans-5f"/>
       <use x="198.388672" xlink:href="#DejaVuSans-39"/>
       <use x="262.011719" xlink:href="#DejaVuSans-39"/>
      </g>
     </g>
    </g>
   </g>
   <g id="matplotlib.axis_2">
    <g id="ytick_1">
     <g id="line2d_13">
      <defs>
       <path d="M 0 0 
L -3.5 0 
" id="m76c71642d3" style="stroke:#000000;stroke-width:0.8;"/>
      </defs>
      <g>
       <use style="stroke:#000000;stroke-width:0.8;" x="47.898" xlink:href="#m76c71642d3" y="199.296"/>
      </g>
     </g>
     <g id="text_13">
      <!-- 0.0 -->
      <defs>
       <path d="M 31.78125 66.40625 
Q 24.171875 66.40625 20.328125 58.90625 
Q 16.5 51.421875 16.5 36.375 
Q 16.5 21.390625 20.328125 13.890625 
Q 24.171875 6.390625 31.78125 6.390625 
Q 39.453125 6.390625 43.28125 13.890625 
Q 47.125 21.390625 47.125 36.375 
Q 47.125 51.421875 43.28125 58.90625 
Q 39.453125 66.40625 31.78125 66.40625 
z
M 31.78125 74.21875 
Q 44.046875 74.21875 50.515625 64.515625 
Q 56.984375 54.828125 56.984375 36.375 
Q 56.984375 17.96875 50.515625 8.265625 
Q 44.046875 -1.421875 31.78125 -1.421875 
Q 19.53125 -1.421875 13.0625 8.265625 
Q 6.59375 17.96875 6.59375 36.375 
Q 6.59375 54.828125 13.0625 64.515625 
Q 19.53125 74.21875 31.78125 74.21875 
z
" id="DejaVuSans-30"/>
       <path d="M 10.6875 12.40625 
L 21 12.40625 
L 21 0 
L 10.6875 0 
z
" id="DejaVuSans-2e"/>
      </defs>
      <g transform="translate(24.994875 203.095219)scale(0.1 -0.1)">
       <use xlink:href="#DejaVuSans-30"/>
       <use x="63.623047" xlink:href="#DejaVuSans-2e"/>
       <use x="95.410156" xlink:href="#DejaVuSans-30"/>
      </g>
     </g>
    </g>
    <g id="ytick_2">
     <g id="line2d_14">
      <g>
       <use style="stroke:#000000;stroke-width:0.8;" x="47.898" xlink:href="#m76c71642d3" y="160.695629"/>
      </g>
     </g>
     <g id="text_14">
      <!-- 0.1 -->
      <g transform="translate(24.994875 164.494848)scale(0.1 -0.1)">
       <use xlink:href="#DejaVuSans-30"/>
       <use x="63.623047" xlink:href="#DejaVuSans-2e"/>
       <use x="95.410156" xlink:href="#DejaVuSans-31"/>
      </g>
     </g>
    </g>
    <g id="ytick_3">
     <g id="line2d_15">
      <g>
       <use style="stroke:#000000;stroke-width:0.8;" x="47.898" xlink:href="#m76c71642d3" y="122.095259"/>
      </g>
     </g>
     <g id="text_15">
      <!-- 0.2 -->
      <g transform="translate(24.994875 125.894477)scale(0.1 -0.1)">
       <use xlink:href="#DejaVuSans-30"/>
       <use x="63.623047" xlink:href="#DejaVuSans-2e"/>
       <use x="95.410156" xlink:href="#DejaVuSans-32"/>
      </g>
     </g>
    </g>
    <g id="ytick_4">
     <g id="line2d_16">
      <g>
       <use style="stroke:#000000;stroke-width:0.8;" x="47.898" xlink:href="#m76c71642d3" y="83.494888"/>
      </g>
     </g>
     <g id="text_16">
      <!-- 0.3 -->
      <g transform="translate(24.994875 87.294107)scale(0.1 -0.1)">
       <use xlink:href="#DejaVuSans-30"/>
       <use x="63.623047" xlink:href="#DejaVuSans-2e"/>
       <use x="95.410156" xlink:href="#DejaVuSans-33"/>
      </g>
     </g>
    </g>
    <g id="ytick_5">
     <g id="line2d_17">
      <g>
       <use style="stroke:#000000;stroke-width:0.8;" x="47.898" xlink:href="#m76c71642d3" y="44.894517"/>
      </g>
     </g>
     <g id="text_17">
      <!-- 0.4 -->
      <g transform="translate(24.994875 48.693736)scale(0.1 -0.1)">
       <use xlink:href="#DejaVuSans-30"/>
       <use x="63.623047" xlink:href="#DejaVuSans-2e"/>
       <use x="95.410156" xlink:href="#DejaVuSans-34"/>
      </g>
     </g>
    </g>
    <g id="ytick_6">
     <g id="line2d_18">
      <g>
       <use style="stroke:#000000;stroke-width:0.8;" x="47.898" xlink:href="#m76c71642d3" y="6.294146"/>
      </g>
     </g>
     <g id="text_18">
      <!-- 0.5 -->
      <g transform="translate(24.994875 10.093365)scale(0.1 -0.1)">
       <use xlink:href="#DejaVuSans-30"/>
       <use x="63.623047" xlink:href="#DejaVuSans-2e"/>
       <use x="95.410156" xlink:href="#DejaVuSans-35"/>
      </g>
     </g>
    </g>
    <g id="text_19">
     <!-- Interactions Fraction -->
     <defs>
      <path d="M 54.890625 33.015625 
L 54.890625 0 
L 45.90625 0 
L 45.90625 32.71875 
Q 45.90625 40.484375 42.875 44.328125 
Q 39.84375 48.1875 33.796875 48.1875 
Q 26.515625 48.1875 22.3125 43.546875 
Q 18.109375 38.921875 18.109375 30.90625 
L 18.109375 0 
L 9.078125 0 
L 9.078125 54.6875 
L 18.109375 54.6875 
L 18.109375 46.1875 
Q 21.34375 51.125 25.703125 53.5625 
Q 30.078125 56 35.796875 56 
Q 45.21875 56 50.046875 50.171875 
Q 54.890625 44.34375 54.890625 33.015625 
z
" id="DejaVuSans-6e"/>
      <path d="M 18.3125 70.21875 
L 18.3125 54.6875 
L 36.8125 54.6875 
L 36.8125 47.703125 
L 18.3125 47.703125 
L 18.3125 18.015625 
Q 18.3125 11.328125 20.140625 9.421875 
Q 21.96875 7.515625 27.59375 7.515625 
L 36.8125 7.515625 
L 36.8125 0 
L 27.59375 0 
Q 17.1875 0 13.234375 3.875 
Q 9.28125 7.765625 9.28125 18.015625 
L 9.28125 47.703125 
L 2.6875 47.703125 
L 2.6875 54.6875 
L 9.28125 54.6875 
L 9.28125 70.21875 
z
" id="DejaVuSans-74"/>
      <path d="M 56.203125 29.59375 
L 56.203125 25.203125 
L 14.890625 25.203125 
Q 15.484375 15.921875 20.484375 11.0625 
Q 25.484375 6.203125 34.421875 6.203125 
Q 39.59375 6.203125 44.453125 7.46875 
Q 49.3125 8.734375 54.109375 11.28125 
L 54.109375 2.78125 
Q 49.265625 0.734375 44.1875 -0.34375 
Q 39.109375 -1.421875 33.890625 -1.421875 
Q 20.796875 -1.421875 13.15625 6.1875 
Q 5.515625 13.8125 5.515625 26.8125 
Q 5.515625 40.234375 12.765625 48.109375 
Q 20.015625 56 32.328125 56 
Q 43.359375 56 49.78125 48.890625 
Q 56.203125 41.796875 56.203125 29.59375 
z
M 47.21875 32.234375 
Q 47.125 39.59375 43.09375 43.984375 
Q 39.0625 48.390625 32.421875 48.390625 
Q 24.90625 48.390625 20.390625 44.140625 
Q 15.875 39.890625 15.1875 32.171875 
z
" id="DejaVuSans-65"/>
      <path d="M 41.109375 46.296875 
Q 39.59375 47.171875 37.8125 47.578125 
Q 36.03125 48 33.890625 48 
Q 26.265625 48 22.1875 43.046875 
Q 18.109375 38.09375 18.109375 28.8125 
L 18.109375 0 
L 9.078125 0 
L 9.078125 54.6875 
L 18.109375 54.6875 
L 18.109375 46.1875 
Q 20.953125 51.171875 25.484375 53.578125 
Q 30.03125 56 36.53125 56 
Q 37.453125 56 38.578125 55.875 
Q 39.703125 55.765625 41.0625 55.515625 
z
" id="DejaVuSans-72"/>
      <path d="M 34.28125 27.484375 
Q 23.390625 27.484375 19.1875 25 
Q 14.984375 22.515625 14.984375 16.5 
Q 14.984375 11.71875 18.140625 8.90625 
Q 21.296875 6.109375 26.703125 6.109375 
Q 34.1875 6.109375 38.703125 11.40625 
Q 43.21875 16.703125 43.21875 25.484375 
L 43.21875 27.484375 
z
M 52.203125 31.203125 
L 52.203125 0 
L 43.21875 0 
L 43.21875 8.296875 
Q 40.140625 3.328125 35.546875 0.953125 
Q 30.953125 -1.421875 24.3125 -1.421875 
Q 15.921875 -1.421875 10.953125 3.296875 
Q 6 8.015625 6 15.921875 
Q 6 25.140625 12.171875 29.828125 
Q 18.359375 34.515625 30.609375 34.515625 
L 43.21875 34.515625 
L 43.21875 35.40625 
Q 43.21875 41.609375 39.140625 45 
Q 35.0625 48.390625 27.6875 48.390625 
Q 23 48.390625 18.546875 47.265625 
Q 14.109375 46.140625 10.015625 43.890625 
L 10.015625 52.203125 
Q 14.9375 54.109375 19.578125 55.046875 
Q 24.21875 56 28.609375 56 
Q 40.484375 56 46.34375 49.84375 
Q 52.203125 43.703125 52.203125 31.203125 
z
" id="DejaVuSans-61"/>
      <path d="M 48.78125 52.59375 
L 48.78125 44.1875 
Q 44.96875 46.296875 41.140625 47.34375 
Q 37.3125 48.390625 33.40625 48.390625 
Q 24.65625 48.390625 19.8125 42.84375 
Q 14.984375 37.3125 14.984375 27.296875 
Q 14.984375 17.28125 19.8125 11.734375 
Q 24.65625 6.203125 33.40625 6.203125 
Q 37.3125 6.203125 41.140625 7.25 
Q 44.96875 8.296875 48.78125 10.40625 
L 48.78125 2.09375 
Q 45.015625 0.34375 40.984375 -0.53125 
Q 36.96875 -1.421875 32.421875 -1.421875 
Q 20.0625 -1.421875 12.78125 6.34375 
Q 5.515625 14.109375 5.515625 27.296875 
Q 5.515625 40.671875 12.859375 48.328125 
Q 20.21875 56 33.015625 56 
Q 37.15625 56 41.109375 55.140625 
Q 45.0625 54.296875 48.78125 52.59375 
z
" id="DejaVuSans-63"/>
      <path d="M 9.421875 54.6875 
L 18.40625 54.6875 
L 18.40625 0 
L 9.421875 0 
z
M 9.421875 75.984375 
L 18.40625 75.984375 
L 18.40625 64.59375 
L 9.421875 64.59375 
z
" id="DejaVuSans-69"/>
      <path d="M 30.609375 48.390625 
Q 23.390625 48.390625 19.1875 42.75 
Q 14.984375 37.109375 14.984375 27.296875 
Q 14.984375 17.484375 19.15625 11.84375 
Q 23.34375 6.203125 30.609375 6.203125 
Q 37.796875 6.203125 41.984375 11.859375 
Q 46.1875 17.53125 46.1875 27.296875 
Q 46.1875 37.015625 41.984375 42.703125 
Q 37.796875 48.390625 30.609375 48.390625 
z
M 30.609375 56 
Q 42.328125 56 49.015625 48.375 
Q 55.71875 40.765625 55.71875 27.296875 
Q 55.71875 13.875 49.015625 6.21875 
Q 42.328125 -1.421875 30.609375 -1.421875 
Q 18.84375 -1.421875 12.171875 6.21875 
Q 5.515625 13.875 5.515625 27.296875 
Q 5.515625 40.765625 12.171875 48.375 
Q 18.84375 56 30.609375 56 
z
" id="DejaVuSans-6f"/>
      <path d="M 44.28125 53.078125 
L 44.28125 44.578125 
Q 40.484375 46.53125 36.375 47.5 
Q 32.28125 48.484375 27.875 48.484375 
Q 21.1875 48.484375 17.84375 46.4375 
Q 14.5 44.390625 14.5 40.28125 
Q 14.5 37.15625 16.890625 35.375 
Q 19.28125 33.59375 26.515625 31.984375 
L 29.59375 31.296875 
Q 39.15625 29.25 43.1875 25.515625 
Q 47.21875 21.78125 47.21875 15.09375 
Q 47.21875 7.46875 41.1875 3.015625 
Q 35.15625 -1.421875 24.609375 -1.421875 
Q 20.21875 -1.421875 15.453125 -0.5625 
Q 10.6875 0.296875 5.421875 2 
L 5.421875 11.28125 
Q 10.40625 8.6875 15.234375 7.390625 
Q 20.0625 6.109375 24.8125 6.109375 
Q 31.15625 6.109375 34.5625 8.28125 
Q 37.984375 10.453125 37.984375 14.40625 
Q 37.984375 18.0625 35.515625 20.015625 
Q 33.0625 21.96875 24.703125 23.78125 
L 21.578125 24.515625 
Q 13.234375 26.265625 9.515625 29.90625 
Q 5.8125 33.546875 5.8125 39.890625 
Q 5.8125 47.609375 11.28125 51.796875 
Q 16.75 56 26.8125 56 
Q 31.78125 56 36.171875 55.265625 
Q 40.578125 54.546875 44.28125 53.078125 
z
" id="DejaVuSans-73"/>
      <path id="DejaVuSans-20"/>
      <path d="M 9.8125 72.90625 
L 51.703125 72.90625 
L 51.703125 64.59375 
L 19.671875 64.59375 
L 19.671875 43.109375 
L 48.578125 43.109375 
L 48.578125 34.8125 
L 19.671875 34.8125 
L 19.671875 0 
L 9.8125 0 
z
" id="DejaVuSans-46"/>
     </defs>
     <g transform="translate(18.915187 154.647839)rotate(-90)scale(0.1 -0.1)">
      <use xlink:href="#DejaVuSans-49"/>
      <use x="29.492188" xlink:href="#DejaVuSans-6e"/>
      <use x="92.871094" xlink:href="#DejaVuSans-74"/>
      <use x="132.080078" xlink:href="#DejaVuSans-65"/>
      <use x="193.603516" xlink:href="#DejaVuSans-72"/>
      <use x="234.716797" xlink:href="#DejaVuSans-61"/>
      <use x="295.996094" xlink:href="#DejaVuSans-63"/>
      <use x="350.976562" xlink:href="#DejaVuSans-74"/>
      <use x="390.185547" xlink:href="#DejaVuSans-69"/>
      <use x="417.96875" xlink:href="#DejaVuSans-6f"/>
      <use x="479.150391" xlink:href="#DejaVuSans-6e"/>
      <use x="542.529297" xlink:href="#DejaVuSans-73"/>
      <use x="594.628906" xlink:href="#DejaVuSans-20"/>
      <use x="626.416016" xlink:href="#DejaVuSans-46"/>
      <use x="683.826172" xlink:href="#DejaVuSans-72"/>
      <use x="724.939453" xlink:href="#DejaVuSans-61"/>
      <use x="786.21875" xlink:href="#DejaVuSans-63"/>
      <use x="841.199219" xlink:href="#DejaVuSans-74"/>
      <use x="880.408203" xlink:href="#DejaVuSans-69"/>
      <use x="908.191406" xlink:href="#DejaVuSans-6f"/>
      <use x="969.373047" xlink:href="#DejaVuSans-6e"/>
     </g>
    </g>
   </g>
   <g id="patch_51">
    <path d="M 47.898 199.296 
L 47.898 6.72624 
" style="fill:none;stroke:#000000;stroke-linecap:square;stroke-linejoin:miter;stroke-width:0.8;"/>
   </g>
   <g id="patch_52">
    <path d="M 632.2536 199.296 
L 632.2536 6.72624 
" style="fill:none;stroke:#000000;stroke-linecap:square;stroke-linejoin:miter;stroke-width:0.8;"/>
   </g>
   <g id="patch_53">
    <path d="M 47.898 199.296 
L 632.2536 199.296 
" style="fill:none;stroke:#000000;stroke-linecap:square;stroke-linejoin:miter;stroke-width:0.8;"/>
   </g>
   <g id="patch_54">
    <path d="M 47.898 6.72624 
L 632.2536 6.72624 
" style="fill:none;stroke:#000000;stroke-linecap:square;stroke-linejoin:miter;stroke-width:0.8;"/>
   </g>
  </g>
 </g>
 <defs>
  <clipPath id="p1c089d2b89">
   <rect height="192.56976" width="584.3556" x="47.898" y="6.72624"/>
  </clipPath>
 </defs>
</svg>
