<?xml version="1.0" encoding="utf-8" standalone="no"?>
<!DOCTYPE svg PUBLIC "-//W3C//DTD SVG 1.1//EN"
  "http://www.w3.org/Graphics/SVG/1.1/DTD/svg11.dtd">
<!-- Created with matplotlib (http://matplotlib.org/) -->
<svg height="488.16pt" version="1.1" viewBox="0 0 783.36 488.16" width="783.36pt" xmlns="http://www.w3.org/2000/svg" xmlns:xlink="http://www.w3.org/1999/xlink">
 <defs>
  <style type="text/css">
*{stroke-linecap:butt;stroke-linejoin:round;}
  </style>
 </defs>
 <g id="figure_1">
  <g id="patch_1">
   <path d="M 0 488.16 
L 783.36 488.16 
L 783.36 0 
L 0 0 
z
" style="fill:#ffffff;"/>
  </g>
  <g id="axes_1">
   <g id="patch_2">
    <path d="M 97.92 434.4624 
L 705.024 434.4624 
L 705.024 58.5792 
L 97.92 58.5792 
z
" style="fill:#ffffff;"/>
   </g>
   <g id="matplotlib.axis_1">
    <g id="xtick_1">
     <g id="line2d_1">
      <defs>
       <path d="M 0 0 
L 0 3.5 
" id="m99aad3ec3e" style="stroke:#000000;stroke-width:0.8;"/>
      </defs>
      <g>
       <use style="stroke:#000000;stroke-width:0.8;" x="97.92" xlink:href="#m99aad3ec3e" y="434.4624"/>
      </g>
     </g>
     <g id="text_1">
      <!-- 0.00 -->
      <defs>
       <path d="M 31.78125 66.40625 
Q 24.171875 66.40625 20.328125 58.90625 
Q 16.5 51.421875 16.5 36.375 
Q 16.5 21.390625 20.328125 13.890625 
Q 24.171875 6.390625 31.78125 6.390625 
Q 39.453125 6.390625 43.28125 13.890625 
Q 47.125 21.390625 47.125 36.375 
Q 47.125 51.421875 43.28125 58.90625 
Q 39.453125 66.40625 31.78125 66.40625 
z
M 31.78125 74.21875 
Q 44.046875 74.21875 50.515625 64.515625 
Q 56.984375 54.828125 56.984375 36.375 
Q 56.984375 17.96875 50.515625 8.265625 
Q 44.046875 -1.421875 31.78125 -1.421875 
Q 19.53125 -1.421875 13.0625 8.265625 
Q 6.59375 17.96875 6.59375 36.375 
Q 6.59375 54.828125 13.0625 64.515625 
Q 19.53125 74.21875 31.78125 74.21875 
z
" id="DejaVuSans-30"/>
       <path d="M 10.6875 12.40625 
L 21 12.40625 
L 21 0 
L 10.6875 0 
z
" id="DejaVuSans-2e"/>
      </defs>
      <g transform="translate(86.787188 449.060838)scale(0.1 -0.1)">
       <use xlink:href="#DejaVuSans-30"/>
       <use x="63.623047" xlink:href="#DejaVuSans-2e"/>
       <use x="95.410156" xlink:href="#DejaVuSans-30"/>
       <use x="159.033203" xlink:href="#DejaVuSans-30"/>
      </g>
     </g>
    </g>
    <g id="xtick_2">
     <g id="line2d_2">
      <g>
       <use style="stroke:#000000;stroke-width:0.8;" x="173.649045" xlink:href="#m99aad3ec3e" y="434.4624"/>
      </g>
     </g>
     <g id="text_2">
      <!-- 0.25 -->
      <defs>
       <path d="M 19.1875 8.296875 
L 53.609375 8.296875 
L 53.609375 0 
L 7.328125 0 
L 7.328125 8.296875 
Q 12.9375 14.109375 22.625 23.890625 
Q 32.328125 33.6875 34.8125 36.53125 
Q 39.546875 41.84375 41.421875 45.53125 
Q 43.3125 49.21875 43.3125 52.78125 
Q 43.3125 58.59375 39.234375 62.25 
Q 35.15625 65.921875 28.609375 65.921875 
Q 23.96875 65.921875 18.8125 64.3125 
Q 13.671875 62.703125 7.8125 59.421875 
L 7.8125 69.390625 
Q 13.765625 71.78125 18.9375 73 
Q 24.125 74.21875 28.421875 74.21875 
Q 39.75 74.21875 46.484375 68.546875 
Q 53.21875 62.890625 53.21875 53.421875 
Q 53.21875 48.921875 51.53125 44.890625 
Q 49.859375 40.875 45.40625 35.40625 
Q 44.1875 33.984375 37.640625 27.21875 
Q 31.109375 20.453125 19.1875 8.296875 
z
" id="DejaVuSans-32"/>
       <path d="M 10.796875 72.90625 
L 49.515625 72.90625 
L 49.515625 64.59375 
L 19.828125 64.59375 
L 19.828125 46.734375 
Q 21.96875 47.46875 24.109375 47.828125 
Q 26.265625 48.1875 28.421875 48.1875 
Q 40.625 48.1875 47.75 41.5 
Q 54.890625 34.8125 54.890625 23.390625 
Q 54.890625 11.625 47.5625 5.09375 
Q 40.234375 -1.421875 26.90625 -1.421875 
Q 22.3125 -1.421875 17.546875 -0.640625 
Q 12.796875 0.140625 7.71875 1.703125 
L 7.71875 11.625 
Q 12.109375 9.234375 16.796875 8.0625 
Q 21.484375 6.890625 26.703125 6.890625 
Q 35.15625 6.890625 40.078125 11.328125 
Q 45.015625 15.765625 45.015625 23.390625 
Q 45.015625 31 40.078125 35.4375 
Q 35.15625 39.890625 26.703125 39.890625 
Q 22.75 39.890625 18.8125 39.015625 
Q 14.890625 38.140625 10.796875 36.28125 
z
" id="DejaVuSans-35"/>
      </defs>
      <g transform="translate(162.516232 449.060838)scale(0.1 -0.1)">
       <use xlink:href="#DejaVuSans-30"/>
       <use x="63.623047" xlink:href="#DejaVuSans-2e"/>
       <use x="95.410156" xlink:href="#DejaVuSans-32"/>
       <use x="159.033203" xlink:href="#DejaVuSans-35"/>
      </g>
     </g>
    </g>
    <g id="xtick_3">
     <g id="line2d_3">
      <g>
       <use style="stroke:#000000;stroke-width:0.8;" x="249.378089" xlink:href="#m99aad3ec3e" y="434.4624"/>
      </g>
     </g>
     <g id="text_3">
      <!-- 0.50 -->
      <g transform="translate(238.245277 449.060838)scale(0.1 -0.1)">
       <use xlink:href="#DejaVuSans-30"/>
       <use x="63.623047" xlink:href="#DejaVuSans-2e"/>
       <use x="95.410156" xlink:href="#DejaVuSans-35"/>
       <use x="159.033203" xlink:href="#DejaVuSans-30"/>
      </g>
     </g>
    </g>
    <g id="xtick_4">
     <g id="line2d_4">
      <g>
       <use style="stroke:#000000;stroke-width:0.8;" x="325.107134" xlink:href="#m99aad3ec3e" y="434.4624"/>
      </g>
     </g>
     <g id="text_4">
      <!-- 0.75 -->
      <defs>
       <path d="M 8.203125 72.90625 
L 55.078125 72.90625 
L 55.078125 68.703125 
L 28.609375 0 
L 18.3125 0 
L 43.21875 64.59375 
L 8.203125 64.59375 
z
" id="DejaVuSans-37"/>
      </defs>
      <g transform="translate(313.974322 449.060838)scale(0.1 -0.1)">
       <use xlink:href="#DejaVuSans-30"/>
       <use x="63.623047" xlink:href="#DejaVuSans-2e"/>
       <use x="95.410156" xlink:href="#DejaVuSans-37"/>
       <use x="159.033203" xlink:href="#DejaVuSans-35"/>
      </g>
     </g>
    </g>
    <g id="xtick_5">
     <g id="line2d_5">
      <g>
       <use style="stroke:#000000;stroke-width:0.8;" x="400.836179" xlink:href="#m99aad3ec3e" y="434.4624"/>
      </g>
     </g>
     <g id="text_5">
      <!-- 1.00 -->
      <defs>
       <path d="M 12.40625 8.296875 
L 28.515625 8.296875 
L 28.515625 63.921875 
L 10.984375 60.40625 
L 10.984375 69.390625 
L 28.421875 72.90625 
L 38.28125 72.90625 
L 38.28125 8.296875 
L 54.390625 8.296875 
L 54.390625 0 
L 12.40625 0 
z
" id="DejaVuSans-31"/>
      </defs>
      <g transform="translate(389.703366 449.060838)scale(0.1 -0.1)">
       <use xlink:href="#DejaVuSans-31"/>
       <use x="63.623047" xlink:href="#DejaVuSans-2e"/>
       <use x="95.410156" xlink:href="#DejaVuSans-30"/>
       <use x="159.033203" xlink:href="#DejaVuSans-30"/>
      </g>
     </g>
    </g>
    <g id="xtick_6">
     <g id="line2d_6">
      <g>
       <use style="stroke:#000000;stroke-width:0.8;" x="476.565224" xlink:href="#m99aad3ec3e" y="434.4624"/>
      </g>
     </g>
     <g id="text_6">
      <!-- 1.25 -->
      <g transform="translate(465.432411 449.060838)scale(0.1 -0.1)">
       <use xlink:href="#DejaVuSans-31"/>
       <use x="63.623047" xlink:href="#DejaVuSans-2e"/>
       <use x="95.410156" xlink:href="#DejaVuSans-32"/>
       <use x="159.033203" xlink:href="#DejaVuSans-35"/>
      </g>
     </g>
    </g>
    <g id="xtick_7">
     <g id="line2d_7">
      <g>
       <use style="stroke:#000000;stroke-width:0.8;" x="552.294268" xlink:href="#m99aad3ec3e" y="434.4624"/>
      </g>
     </g>
     <g id="text_7">
      <!-- 1.50 -->
      <g transform="translate(541.161456 449.060838)scale(0.1 -0.1)">
       <use xlink:href="#DejaVuSans-31"/>
       <use x="63.623047" xlink:href="#DejaVuSans-2e"/>
       <use x="95.410156" xlink:href="#DejaVuSans-35"/>
       <use x="159.033203" xlink:href="#DejaVuSans-30"/>
      </g>
     </g>
    </g>
    <g id="xtick_8">
     <g id="line2d_8">
      <g>
       <use style="stroke:#000000;stroke-width:0.8;" x="628.023313" xlink:href="#m99aad3ec3e" y="434.4624"/>
      </g>
     </g>
     <g id="text_8">
      <!-- 1.75 -->
      <g transform="translate(616.890501 449.060838)scale(0.1 -0.1)">
       <use xlink:href="#DejaVuSans-31"/>
       <use x="63.623047" xlink:href="#DejaVuSans-2e"/>
       <use x="95.410156" xlink:href="#DejaVuSans-37"/>
       <use x="159.033203" xlink:href="#DejaVuSans-35"/>
      </g>
     </g>
    </g>
    <g id="xtick_9">
     <g id="line2d_9">
      <g>
       <use style="stroke:#000000;stroke-width:0.8;" x="703.752358" xlink:href="#m99aad3ec3e" y="434.4624"/>
      </g>
     </g>
     <g id="text_9">
      <!-- 2.00 -->
      <g transform="translate(692.619545 449.060838)scale(0.1 -0.1)">
       <use xlink:href="#DejaVuSans-32"/>
       <use x="63.623047" xlink:href="#DejaVuSans-2e"/>
       <use x="95.410156" xlink:href="#DejaVuSans-30"/>
       <use x="159.033203" xlink:href="#DejaVuSans-30"/>
      </g>
     </g>
    </g>
    <g id="text_10">
     <!-- Time (nsec) -->
     <defs>
      <path d="M -0.296875 72.90625 
L 61.375 72.90625 
L 61.375 64.59375 
L 35.5 64.59375 
L 35.5 0 
L 25.59375 0 
L 25.59375 64.59375 
L -0.296875 64.59375 
z
" id="DejaVuSans-54"/>
      <path d="M 9.421875 54.6875 
L 18.40625 54.6875 
L 18.40625 0 
L 9.421875 0 
z
M 9.421875 75.984375 
L 18.40625 75.984375 
L 18.40625 64.59375 
L 9.421875 64.59375 
z
" id="DejaVuSans-69"/>
      <path d="M 52 44.1875 
Q 55.375 50.25 60.0625 53.125 
Q 64.75 56 71.09375 56 
Q 79.640625 56 84.28125 50.015625 
Q 88.921875 44.046875 88.921875 33.015625 
L 88.921875 0 
L 79.890625 0 
L 79.890625 32.71875 
Q 79.890625 40.578125 77.09375 44.375 
Q 74.3125 48.1875 68.609375 48.1875 
Q 61.625 48.1875 57.5625 43.546875 
Q 53.515625 38.921875 53.515625 30.90625 
L 53.515625 0 
L 44.484375 0 
L 44.484375 32.71875 
Q 44.484375 40.625 41.703125 44.40625 
Q 38.921875 48.1875 33.109375 48.1875 
Q 26.21875 48.1875 22.15625 43.53125 
Q 18.109375 38.875 18.109375 30.90625 
L 18.109375 0 
L 9.078125 0 
L 9.078125 54.6875 
L 18.109375 54.6875 
L 18.109375 46.1875 
Q 21.1875 51.21875 25.484375 53.609375 
Q 29.78125 56 35.6875 56 
Q 41.65625 56 45.828125 52.96875 
Q 50 49.953125 52 44.1875 
z
" id="DejaVuSans-6d"/>
      <path d="M 56.203125 29.59375 
L 56.203125 25.203125 
L 14.890625 25.203125 
Q 15.484375 15.921875 20.484375 11.0625 
Q 25.484375 6.203125 34.421875 6.203125 
Q 39.59375 6.203125 44.453125 7.46875 
Q 49.3125 8.734375 54.109375 11.28125 
L 54.109375 2.78125 
Q 49.265625 0.734375 44.1875 -0.34375 
Q 39.109375 -1.421875 33.890625 -1.421875 
Q 20.796875 -1.421875 13.15625 6.1875 
Q 5.515625 13.8125 5.515625 26.8125 
Q 5.515625 40.234375 12.765625 48.109375 
Q 20.015625 56 32.328125 56 
Q 43.359375 56 49.78125 48.890625 
Q 56.203125 41.796875 56.203125 29.59375 
z
M 47.21875 32.234375 
Q 47.125 39.59375 43.09375 43.984375 
Q 39.0625 48.390625 32.421875 48.390625 
Q 24.90625 48.390625 20.390625 44.140625 
Q 15.875 39.890625 15.1875 32.171875 
z
" id="DejaVuSans-65"/>
      <path id="DejaVuSans-20"/>
      <path d="M 31 75.875 
Q 24.46875 64.65625 21.28125 53.65625 
Q 18.109375 42.671875 18.109375 31.390625 
Q 18.109375 20.125 21.3125 9.0625 
Q 24.515625 -2 31 -13.1875 
L 23.1875 -13.1875 
Q 15.875 -1.703125 12.234375 9.375 
Q 8.59375 20.453125 8.59375 31.390625 
Q 8.59375 42.28125 12.203125 53.3125 
Q 15.828125 64.359375 23.1875 75.875 
z
" id="DejaVuSans-28"/>
      <path d="M 54.890625 33.015625 
L 54.890625 0 
L 45.90625 0 
L 45.90625 32.71875 
Q 45.90625 40.484375 42.875 44.328125 
Q 39.84375 48.1875 33.796875 48.1875 
Q 26.515625 48.1875 22.3125 43.546875 
Q 18.109375 38.921875 18.109375 30.90625 
L 18.109375 0 
L 9.078125 0 
L 9.078125 54.6875 
L 18.109375 54.6875 
L 18.109375 46.1875 
Q 21.34375 51.125 25.703125 53.5625 
Q 30.078125 56 35.796875 56 
Q 45.21875 56 50.046875 50.171875 
Q 54.890625 44.34375 54.890625 33.015625 
z
" id="DejaVuSans-6e"/>
      <path d="M 44.28125 53.078125 
L 44.28125 44.578125 
Q 40.484375 46.53125 36.375 47.5 
Q 32.28125 48.484375 27.875 48.484375 
Q 21.1875 48.484375 17.84375 46.4375 
Q 14.5 44.390625 14.5 40.28125 
Q 14.5 37.15625 16.890625 35.375 
Q 19.28125 33.59375 26.515625 31.984375 
L 29.59375 31.296875 
Q 39.15625 29.25 43.1875 25.515625 
Q 47.21875 21.78125 47.21875 15.09375 
Q 47.21875 7.46875 41.1875 3.015625 
Q 35.15625 -1.421875 24.609375 -1.421875 
Q 20.21875 -1.421875 15.453125 -0.5625 
Q 10.6875 0.296875 5.421875 2 
L 5.421875 11.28125 
Q 10.40625 8.6875 15.234375 7.390625 
Q 20.0625 6.109375 24.8125 6.109375 
Q 31.15625 6.109375 34.5625 8.28125 
Q 37.984375 10.453125 37.984375 14.40625 
Q 37.984375 18.0625 35.515625 20.015625 
Q 33.0625 21.96875 24.703125 23.78125 
L 21.578125 24.515625 
Q 13.234375 26.265625 9.515625 29.90625 
Q 5.8125 33.546875 5.8125 39.890625 
Q 5.8125 47.609375 11.28125 51.796875 
Q 16.75 56 26.8125 56 
Q 31.78125 56 36.171875 55.265625 
Q 40.578125 54.546875 44.28125 53.078125 
z
" id="DejaVuSans-73"/>
      <path d="M 48.78125 52.59375 
L 48.78125 44.1875 
Q 44.96875 46.296875 41.140625 47.34375 
Q 37.3125 48.390625 33.40625 48.390625 
Q 24.65625 48.390625 19.8125 42.84375 
Q 14.984375 37.3125 14.984375 27.296875 
Q 14.984375 17.28125 19.8125 11.734375 
Q 24.65625 6.203125 33.40625 6.203125 
Q 37.3125 6.203125 41.140625 7.25 
Q 44.96875 8.296875 48.78125 10.40625 
L 48.78125 2.09375 
Q 45.015625 0.34375 40.984375 -0.53125 
Q 36.96875 -1.421875 32.421875 -1.421875 
Q 20.0625 -1.421875 12.78125 6.34375 
Q 5.515625 14.109375 5.515625 27.296875 
Q 5.515625 40.671875 12.859375 48.328125 
Q 20.21875 56 33.015625 56 
Q 37.15625 56 41.109375 55.140625 
Q 45.0625 54.296875 48.78125 52.59375 
z
" id="DejaVuSans-63"/>
      <path d="M 8.015625 75.875 
L 15.828125 75.875 
Q 23.140625 64.359375 26.78125 53.3125 
Q 30.421875 42.28125 30.421875 31.390625 
Q 30.421875 20.453125 26.78125 9.375 
Q 23.140625 -1.703125 15.828125 -13.1875 
L 8.015625 -13.1875 
Q 14.5 -2 17.703125 9.0625 
Q 20.90625 20.125 20.90625 31.390625 
Q 20.90625 42.671875 17.703125 53.65625 
Q 14.5 64.65625 8.015625 75.875 
z
" id="DejaVuSans-29"/>
     </defs>
     <g transform="translate(354.30825 467.298025)scale(0.16 -0.16)">
      <use xlink:href="#DejaVuSans-54"/>
      <use x="61.037109" xlink:href="#DejaVuSans-69"/>
      <use x="88.820312" xlink:href="#DejaVuSans-6d"/>
      <use x="186.232422" xlink:href="#DejaVuSans-65"/>
      <use x="247.755859" xlink:href="#DejaVuSans-20"/>
      <use x="279.542969" xlink:href="#DejaVuSans-28"/>
      <use x="318.556641" xlink:href="#DejaVuSans-6e"/>
      <use x="381.935547" xlink:href="#DejaVuSans-73"/>
      <use x="434.035156" xlink:href="#DejaVuSans-65"/>
      <use x="495.558594" xlink:href="#DejaVuSans-63"/>
      <use x="550.539062" xlink:href="#DejaVuSans-29"/>
     </g>
    </g>
   </g>
   <g id="matplotlib.axis_2">
    <g id="ytick_1">
     <g id="line2d_10">
      <defs>
       <path d="M 0 0 
L -3.5 0 
" id="m77155dda63" style="stroke:#000000;stroke-width:0.8;"/>
      </defs>
      <g>
       <use style="stroke:#000000;stroke-width:0.8;" x="97.92" xlink:href="#m77155dda63" y="392.690638"/>
      </g>
     </g>
     <g id="text_11">
      <!-- 0.2 -->
      <g transform="translate(75.016875 396.489857)scale(0.1 -0.1)">
       <use xlink:href="#DejaVuSans-30"/>
       <use x="63.623047" xlink:href="#DejaVuSans-2e"/>
       <use x="95.410156" xlink:href="#DejaVuSans-32"/>
      </g>
     </g>
    </g>
    <g id="ytick_2">
     <g id="line2d_11">
      <g>
       <use style="stroke:#000000;stroke-width:0.8;" x="97.92" xlink:href="#m77155dda63" y="350.918876"/>
      </g>
     </g>
     <g id="text_12">
      <!-- 0.4 -->
      <defs>
       <path d="M 37.796875 64.3125 
L 12.890625 25.390625 
L 37.796875 25.390625 
z
M 35.203125 72.90625 
L 47.609375 72.90625 
L 47.609375 25.390625 
L 58.015625 25.390625 
L 58.015625 17.1875 
L 47.609375 17.1875 
L 47.609375 0 
L 37.796875 0 
L 37.796875 17.1875 
L 4.890625 17.1875 
L 4.890625 26.703125 
z
" id="DejaVuSans-34"/>
      </defs>
      <g transform="translate(75.016875 354.718095)scale(0.1 -0.1)">
       <use xlink:href="#DejaVuSans-30"/>
       <use x="63.623047" xlink:href="#DejaVuSans-2e"/>
       <use x="95.410156" xlink:href="#DejaVuSans-34"/>
      </g>
     </g>
    </g>
    <g id="ytick_3">
     <g id="line2d_12">
      <g>
       <use style="stroke:#000000;stroke-width:0.8;" x="97.92" xlink:href="#m77155dda63" y="309.147114"/>
      </g>
     </g>
     <g id="text_13">
      <!-- 0.6 -->
      <defs>
       <path d="M 33.015625 40.375 
Q 26.375 40.375 22.484375 35.828125 
Q 18.609375 31.296875 18.609375 23.390625 
Q 18.609375 15.53125 22.484375 10.953125 
Q 26.375 6.390625 33.015625 6.390625 
Q 39.65625 6.390625 43.53125 10.953125 
Q 47.40625 15.53125 47.40625 23.390625 
Q 47.40625 31.296875 43.53125 35.828125 
Q 39.65625 40.375 33.015625 40.375 
z
M 52.59375 71.296875 
L 52.59375 62.3125 
Q 48.875 64.0625 45.09375 64.984375 
Q 41.3125 65.921875 37.59375 65.921875 
Q 27.828125 65.921875 22.671875 59.328125 
Q 17.53125 52.734375 16.796875 39.40625 
Q 19.671875 43.65625 24.015625 45.921875 
Q 28.375 48.1875 33.59375 48.1875 
Q 44.578125 48.1875 50.953125 41.515625 
Q 57.328125 34.859375 57.328125 23.390625 
Q 57.328125 12.15625 50.6875 5.359375 
Q 44.046875 -1.421875 33.015625 -1.421875 
Q 20.359375 -1.421875 13.671875 8.265625 
Q 6.984375 17.96875 6.984375 36.375 
Q 6.984375 53.65625 15.1875 63.9375 
Q 23.390625 74.21875 37.203125 74.21875 
Q 40.921875 74.21875 44.703125 73.484375 
Q 48.484375 72.75 52.59375 71.296875 
z
" id="DejaVuSans-36"/>
      </defs>
      <g transform="translate(75.016875 312.946333)scale(0.1 -0.1)">
       <use xlink:href="#DejaVuSans-30"/>
       <use x="63.623047" xlink:href="#DejaVuSans-2e"/>
       <use x="95.410156" xlink:href="#DejaVuSans-36"/>
      </g>
     </g>
    </g>
    <g id="ytick_4">
     <g id="line2d_13">
      <g>
       <use style="stroke:#000000;stroke-width:0.8;" x="97.92" xlink:href="#m77155dda63" y="267.375352"/>
      </g>
     </g>
     <g id="text_14">
      <!-- 0.8 -->
      <defs>
       <path d="M 31.78125 34.625 
Q 24.75 34.625 20.71875 30.859375 
Q 16.703125 27.09375 16.703125 20.515625 
Q 16.703125 13.921875 20.71875 10.15625 
Q 24.75 6.390625 31.78125 6.390625 
Q 38.8125 6.390625 42.859375 10.171875 
Q 46.921875 13.96875 46.921875 20.515625 
Q 46.921875 27.09375 42.890625 30.859375 
Q 38.875 34.625 31.78125 34.625 
z
M 21.921875 38.8125 
Q 15.578125 40.375 12.03125 44.71875 
Q 8.5 49.078125 8.5 55.328125 
Q 8.5 64.0625 14.71875 69.140625 
Q 20.953125 74.21875 31.78125 74.21875 
Q 42.671875 74.21875 48.875 69.140625 
Q 55.078125 64.0625 55.078125 55.328125 
Q 55.078125 49.078125 51.53125 44.71875 
Q 48 40.375 41.703125 38.8125 
Q 48.828125 37.15625 52.796875 32.3125 
Q 56.78125 27.484375 56.78125 20.515625 
Q 56.78125 9.90625 50.3125 4.234375 
Q 43.84375 -1.421875 31.78125 -1.421875 
Q 19.734375 -1.421875 13.25 4.234375 
Q 6.78125 9.90625 6.78125 20.515625 
Q 6.78125 27.484375 10.78125 32.3125 
Q 14.796875 37.15625 21.921875 38.8125 
z
M 18.3125 54.390625 
Q 18.3125 48.734375 21.84375 45.5625 
Q 25.390625 42.390625 31.78125 42.390625 
Q 38.140625 42.390625 41.71875 45.5625 
Q 45.3125 48.734375 45.3125 54.390625 
Q 45.3125 60.0625 41.71875 63.234375 
Q 38.140625 66.40625 31.78125 66.40625 
Q 25.390625 66.40625 21.84375 63.234375 
Q 18.3125 60.0625 18.3125 54.390625 
z
" id="DejaVuSans-38"/>
      </defs>
      <g transform="translate(75.016875 271.174571)scale(0.1 -0.1)">
       <use xlink:href="#DejaVuSans-30"/>
       <use x="63.623047" xlink:href="#DejaVuSans-2e"/>
       <use x="95.410156" xlink:href="#DejaVuSans-38"/>
      </g>
     </g>
    </g>
    <g id="ytick_5">
     <g id="line2d_14">
      <g>
       <use style="stroke:#000000;stroke-width:0.8;" x="97.92" xlink:href="#m77155dda63" y="225.60359"/>
      </g>
     </g>
     <g id="text_15">
      <!-- 1.0 -->
      <g transform="translate(75.016875 229.402809)scale(0.1 -0.1)">
       <use xlink:href="#DejaVuSans-31"/>
       <use x="63.623047" xlink:href="#DejaVuSans-2e"/>
       <use x="95.410156" xlink:href="#DejaVuSans-30"/>
      </g>
     </g>
    </g>
    <g id="ytick_6">
     <g id="line2d_15">
      <g>
       <use style="stroke:#000000;stroke-width:0.8;" x="97.92" xlink:href="#m77155dda63" y="183.831828"/>
      </g>
     </g>
     <g id="text_16">
      <!-- 1.2 -->
      <g transform="translate(75.016875 187.631047)scale(0.1 -0.1)">
       <use xlink:href="#DejaVuSans-31"/>
       <use x="63.623047" xlink:href="#DejaVuSans-2e"/>
       <use x="95.410156" xlink:href="#DejaVuSans-32"/>
      </g>
     </g>
    </g>
    <g id="ytick_7">
     <g id="line2d_16">
      <g>
       <use style="stroke:#000000;stroke-width:0.8;" x="97.92" xlink:href="#m77155dda63" y="142.060066"/>
      </g>
     </g>
     <g id="text_17">
      <!-- 1.4 -->
      <g transform="translate(75.016875 145.859285)scale(0.1 -0.1)">
       <use xlink:href="#DejaVuSans-31"/>
       <use x="63.623047" xlink:href="#DejaVuSans-2e"/>
       <use x="95.410156" xlink:href="#DejaVuSans-34"/>
      </g>
     </g>
    </g>
    <g id="ytick_8">
     <g id="line2d_17">
      <g>
       <use style="stroke:#000000;stroke-width:0.8;" x="97.92" xlink:href="#m77155dda63" y="100.288304"/>
      </g>
     </g>
     <g id="text_18">
      <!-- 1.6 -->
      <g transform="translate(75.016875 104.087523)scale(0.1 -0.1)">
       <use xlink:href="#DejaVuSans-31"/>
       <use x="63.623047" xlink:href="#DejaVuSans-2e"/>
       <use x="95.410156" xlink:href="#DejaVuSans-36"/>
      </g>
     </g>
    </g>
    <g id="ytick_9">
     <g id="line2d_18">
      <g>
       <use style="stroke:#000000;stroke-width:0.8;" x="97.92" xlink:href="#m77155dda63" y="58.516542"/>
      </g>
     </g>
     <g id="text_19">
      <!-- 1.8 -->
      <g transform="translate(75.016875 62.315761)scale(0.1 -0.1)">
       <use xlink:href="#DejaVuSans-31"/>
       <use x="63.623047" xlink:href="#DejaVuSans-2e"/>
       <use x="95.410156" xlink:href="#DejaVuSans-38"/>
      </g>
     </g>
    </g>
    <g id="text_20">
     <!-- Protein RMSD ($\AA$) -->
     <defs>
      <path d="M 19.671875 64.796875 
L 19.671875 37.40625 
L 32.078125 37.40625 
Q 38.96875 37.40625 42.71875 40.96875 
Q 46.484375 44.53125 46.484375 51.125 
Q 46.484375 57.671875 42.71875 61.234375 
Q 38.96875 64.796875 32.078125 64.796875 
z
M 9.8125 72.90625 
L 32.078125 72.90625 
Q 44.34375 72.90625 50.609375 67.359375 
Q 56.890625 61.8125 56.890625 51.125 
Q 56.890625 40.328125 50.609375 34.8125 
Q 44.34375 29.296875 32.078125 29.296875 
L 19.671875 29.296875 
L 19.671875 0 
L 9.8125 0 
z
" id="DejaVuSans-50"/>
      <path d="M 41.109375 46.296875 
Q 39.59375 47.171875 37.8125 47.578125 
Q 36.03125 48 33.890625 48 
Q 26.265625 48 22.1875 43.046875 
Q 18.109375 38.09375 18.109375 28.8125 
L 18.109375 0 
L 9.078125 0 
L 9.078125 54.6875 
L 18.109375 54.6875 
L 18.109375 46.1875 
Q 20.953125 51.171875 25.484375 53.578125 
Q 30.03125 56 36.53125 56 
Q 37.453125 56 38.578125 55.875 
Q 39.703125 55.765625 41.0625 55.515625 
z
" id="DejaVuSans-72"/>
      <path d="M 30.609375 48.390625 
Q 23.390625 48.390625 19.1875 42.75 
Q 14.984375 37.109375 14.984375 27.296875 
Q 14.984375 17.484375 19.15625 11.84375 
Q 23.34375 6.203125 30.609375 6.203125 
Q 37.796875 6.203125 41.984375 11.859375 
Q 46.1875 17.53125 46.1875 27.296875 
Q 46.1875 37.015625 41.984375 42.703125 
Q 37.796875 48.390625 30.609375 48.390625 
z
M 30.609375 56 
Q 42.328125 56 49.015625 48.375 
Q 55.71875 40.765625 55.71875 27.296875 
Q 55.71875 13.875 49.015625 6.21875 
Q 42.328125 -1.421875 30.609375 -1.421875 
Q 18.84375 -1.421875 12.171875 6.21875 
Q 5.515625 13.875 5.515625 27.296875 
Q 5.515625 40.765625 12.171875 48.375 
Q 18.84375 56 30.609375 56 
z
" id="DejaVuSans-6f"/>
      <path d="M 18.3125 70.21875 
L 18.3125 54.6875 
L 36.8125 54.6875 
L 36.8125 47.703125 
L 18.3125 47.703125 
L 18.3125 18.015625 
Q 18.3125 11.328125 20.140625 9.421875 
Q 21.96875 7.515625 27.59375 7.515625 
L 36.8125 7.515625 
L 36.8125 0 
L 27.59375 0 
Q 17.1875 0 13.234375 3.875 
Q 9.28125 7.765625 9.28125 18.015625 
L 9.28125 47.703125 
L 2.6875 47.703125 
L 2.6875 54.6875 
L 9.28125 54.6875 
L 9.28125 70.21875 
z
" id="DejaVuSans-74"/>
      <path d="M 44.390625 34.1875 
Q 47.5625 33.109375 50.5625 29.59375 
Q 53.5625 26.078125 56.59375 19.921875 
L 66.609375 0 
L 56 0 
L 46.6875 18.703125 
Q 43.0625 26.03125 39.671875 28.421875 
Q 36.28125 30.8125 30.421875 30.8125 
L 19.671875 30.8125 
L 19.671875 0 
L 9.8125 0 
L 9.8125 72.90625 
L 32.078125 72.90625 
Q 44.578125 72.90625 50.734375 67.671875 
Q 56.890625 62.453125 56.890625 51.90625 
Q 56.890625 45.015625 53.6875 40.46875 
Q 50.484375 35.9375 44.390625 34.1875 
z
M 19.671875 64.796875 
L 19.671875 38.921875 
L 32.078125 38.921875 
Q 39.203125 38.921875 42.84375 42.21875 
Q 46.484375 45.515625 46.484375 51.90625 
Q 46.484375 58.296875 42.84375 61.546875 
Q 39.203125 64.796875 32.078125 64.796875 
z
" id="DejaVuSans-52"/>
      <path d="M 9.8125 72.90625 
L 24.515625 72.90625 
L 43.109375 23.296875 
L 61.8125 72.90625 
L 76.515625 72.90625 
L 76.515625 0 
L 66.890625 0 
L 66.890625 64.015625 
L 48.09375 14.015625 
L 38.1875 14.015625 
L 19.390625 64.015625 
L 19.390625 0 
L 9.8125 0 
z
" id="DejaVuSans-4d"/>
      <path d="M 53.515625 70.515625 
L 53.515625 60.890625 
Q 47.90625 63.578125 42.921875 64.890625 
Q 37.9375 66.21875 33.296875 66.21875 
Q 25.25 66.21875 20.875 63.09375 
Q 16.5 59.96875 16.5 54.203125 
Q 16.5 49.359375 19.40625 46.890625 
Q 22.3125 44.4375 30.421875 42.921875 
L 36.375 41.703125 
Q 47.40625 39.59375 52.65625 34.296875 
Q 57.90625 29 57.90625 20.125 
Q 57.90625 9.515625 50.796875 4.046875 
Q 43.703125 -1.421875 29.984375 -1.421875 
Q 24.8125 -1.421875 18.96875 -0.25 
Q 13.140625 0.921875 6.890625 3.21875 
L 6.890625 13.375 
Q 12.890625 10.015625 18.65625 8.296875 
Q 24.421875 6.59375 29.984375 6.59375 
Q 38.421875 6.59375 43.015625 9.90625 
Q 47.609375 13.234375 47.609375 19.390625 
Q 47.609375 24.75 44.3125 27.78125 
Q 41.015625 30.8125 33.5 32.328125 
L 27.484375 33.5 
Q 16.453125 35.6875 11.515625 40.375 
Q 6.59375 45.0625 6.59375 53.421875 
Q 6.59375 63.09375 13.40625 68.65625 
Q 20.21875 74.21875 32.171875 74.21875 
Q 37.3125 74.21875 42.625 73.28125 
Q 47.953125 72.359375 53.515625 70.515625 
z
" id="DejaVuSans-53"/>
      <path d="M 19.671875 64.796875 
L 19.671875 8.109375 
L 31.59375 8.109375 
Q 46.6875 8.109375 53.6875 14.9375 
Q 60.6875 21.78125 60.6875 36.53125 
Q 60.6875 51.171875 53.6875 57.984375 
Q 46.6875 64.796875 31.59375 64.796875 
z
M 9.8125 72.90625 
L 30.078125 72.90625 
Q 51.265625 72.90625 61.171875 64.09375 
Q 71.09375 55.28125 71.09375 36.53125 
Q 71.09375 17.671875 61.125 8.828125 
Q 51.171875 0 30.078125 0 
L 9.8125 0 
z
" id="DejaVuSans-44"/>
      <path d="M 56.40625 0 
L 31.90625 0 
L 31.90625 1.59375 
Q 36.40625 1.796875 38 3 
Q 39.59375 4.203125 39.59375 6.90625 
Q 39.59375 7.703125 39.40625 9.5 
L 37.40625 22.59375 
L 15.40625 22.59375 
L 9.5 11.5 
Q 7.296875 7.40625 7.296875 4.90625 
Q 7.296875 1.90625 13.5 1.59375 
L 13.5 0 
L -5.09375 0 
L -5.09375 1.59375 
Q -1.703125 2.296875 0.4375 4.796875 
Q 2.59375 7.296875 8.296875 17.203125 
L 36.796875 66.796875 
L 39.40625 66.796875 
L 48.59375 11.5 
Q 49.59375 5.296875 51 3.59375 
Q 52.40625 1.90625 56.40625 1.59375 
z
M 36.90625 26.203125 
L 32.40625 52.5 
L 17.5 26.203125 
z
M 44.59375 95.703125 
Q 50.5 89.796875 50.5 85.6875 
Q 50.5 81.59375 47.546875 78.6875 
Q 44.59375 75.796875 40.5 75.796875 
Q 36.203125 75.796875 33.34375 78.6875 
Q 30.5 81.59375 30.5 85.796875 
Q 30.5 89.796875 33.453125 92.75 
Q 36.40625 95.703125 40.40625 95.703125 
Q 44.59375 95.703125 50.5 89.796875 
z
M 43.296875 79.203125 
Q 47.09375 82.90625 47.09375 85.703125 
Q 47.09375 88.5 45.140625 90.390625 
Q 43.203125 92.296875 40.40625 92.296875 
Q 37.796875 92.296875 35.84375 90.34375 
Q 33.90625 88.40625 33.90625 85.796875 
Q 33.90625 83 35.75 81.09375 
Q 37.59375 79.203125 40.40625 79.203125 
Q 43.296875 79.203125 47.09375 82.90625 
z
" id="STIXGeneral-Italic-c5"/>
     </defs>
     <g transform="translate(67.689375 314.8408)rotate(-90)scale(0.16 -0.16)">
      <use transform="translate(0 0.296875)" xlink:href="#DejaVuSans-50"/>
      <use transform="translate(60.302734 0.296875)" xlink:href="#DejaVuSans-72"/>
      <use transform="translate(101.416016 0.296875)" xlink:href="#DejaVuSans-6f"/>
      <use transform="translate(162.597656 0.296875)" xlink:href="#DejaVuSans-74"/>
      <use transform="translate(201.806641 0.296875)" xlink:href="#DejaVuSans-65"/>
      <use transform="translate(263.330078 0.296875)" xlink:href="#DejaVuSans-69"/>
      <use transform="translate(291.113281 0.296875)" xlink:href="#DejaVuSans-6e"/>
      <use transform="translate(354.492188 0.296875)" xlink:href="#DejaVuSans-20"/>
      <use transform="translate(386.279297 0.296875)" xlink:href="#DejaVuSans-52"/>
      <use transform="translate(455.761719 0.296875)" xlink:href="#DejaVuSans-4d"/>
      <use transform="translate(542.041016 0.296875)" xlink:href="#DejaVuSans-53"/>
      <use transform="translate(605.517578 0.296875)" xlink:href="#DejaVuSans-44"/>
      <use transform="translate(682.519531 0.296875)" xlink:href="#DejaVuSans-20"/>
      <use transform="translate(714.306641 0.296875)" xlink:href="#DejaVuSans-28"/>
      <use transform="translate(753.320312 0.296875)" xlink:href="#STIXGeneral-Italic-c5"/>
      <use transform="translate(814.420303 0.296875)" xlink:href="#DejaVuSans-29"/>
     </g>
    </g>
   </g>
   <g id="line2d_19">
    <path clip-path="url(#p5aa1430833)" d="M 97.92 434.4624 
L 99.433975 335.672183 
L 100.94795 298.077597 
L 102.461925 305.387656 
L 103.9759 310.609126 
L 105.489875 304.343361 
L 107.00385 306.223091 
L 108.517825 283.875198 
L 110.0318 282.204328 
L 111.545776 276.773999 
L 113.059751 289.305527 
L 114.573726 286.381504 
L 116.087701 295.153574 
L 117.601676 281.78661 
L 119.115651 291.811833 
L 120.629626 286.590363 
L 122.143601 287.843516 
L 123.657576 265.91334 
L 125.171551 275.520846 
L 126.685526 251.710941 
L 128.199501 268.210787 
L 129.713476 269.672799 
L 131.227451 272.387964 
L 132.741426 261.736164 
L 134.255401 278.23601 
L 135.769377 273.01454 
L 137.283352 264.451329 
L 138.797327 269.881658 
L 140.311302 266.122199 
L 141.825277 245.236318 
L 143.339252 249.413495 
L 144.853227 265.077905 
L 146.367202 258.603282 
L 147.881177 265.704482 
L 149.395152 262.5716 
L 150.909127 287.425798 
L 152.423102 282.622045 
L 153.937077 260.900729 
L 155.451052 279.698022 
L 156.965027 278.862587 
L 158.479002 281.160034 
L 159.992978 274.476552 
L 161.506953 275.520846 
L 163.020928 262.5716 
L 164.534903 261.945023 
L 166.048878 269.255081 
L 167.562853 265.286764 
L 169.076828 256.305835 
L 170.590803 261.318447 
L 172.104778 258.394423 
L 173.618753 264.869046 
L 175.132728 265.704482 
L 176.646703 256.514694 
L 178.160678 268.419646 
L 179.674653 264.660188 
L 181.188628 263.615894 
L 182.702603 269.46394 
L 184.216579 269.046223 
L 185.730554 275.520846 
L 187.244529 274.894269 
L 188.758504 275.729705 
L 190.272479 277.191716 
L 191.786454 281.78661 
L 193.300429 273.849975 
L 194.814404 280.742316 
L 196.328379 271.970246 
L 197.842354 269.046223 
L 199.356329 251.502083 
L 200.870304 224.141579 
L 202.384279 240.432566 
L 203.898254 254.217247 
L 205.412229 239.179413 
L 206.926204 226.647884 
L 208.44018 263.198176 
L 209.954155 250.457789 
L 211.46813 241.268001 
L 214.49608 289.096668 
L 216.010055 278.444869 
L 217.52403 280.324598 
L 219.038005 248.578059 
L 220.55198 254.217247 
L 222.065955 264.24247 
L 223.57993 260.065294 
L 225.093905 284.084057 
L 226.60788 298.077597 
L 228.121855 271.552528 
L 229.63583 279.071446 
L 231.149805 265.91334 
L 232.663781 262.780458 
L 234.177756 270.925952 
L 235.691731 272.387964 
L 237.205706 259.438717 
L 238.719681 257.350129 
L 240.233656 280.742316 
L 241.747631 255.261541 
L 243.261606 266.539917 
L 244.775581 274.476552 
L 246.289556 276.356281 
L 247.803531 260.483011 
L 249.317506 268.837364 
L 250.831481 261.527305 
L 252.345456 262.989317 
L 253.859431 256.932412 
L 255.373406 259.229859 
L 256.887382 228.318755 
L 258.401357 229.571908 
L 259.915332 224.350437 
L 261.429307 236.464248 
L 262.943282 227.065602 
L 264.457257 218.502391 
L 265.971232 238.761695 
L 267.485207 243.356589 
L 268.999182 239.179413 
L 270.513157 232.70479 
L 272.027132 198.451945 
L 273.541107 209.103744 
L 275.055082 211.818909 
L 276.569057 229.989625 
L 279.597007 236.673107 
L 281.110983 251.9198 
L 282.624958 223.723861 
L 284.138933 200.958251 
L 285.652908 237.717401 
L 287.166883 231.033919 
L 288.680858 246.69833 
L 290.194833 219.755544 
L 291.708808 220.173261 
L 293.222783 234.166801 
L 294.736758 235.419954 
L 296.250733 237.92626 
L 297.764708 243.14773 
L 299.278683 234.584519 
L 300.792658 242.730013 
L 302.306633 247.533765 
L 303.820608 236.046531 
L 305.334584 233.122507 
L 306.848559 227.483319 
L 308.362534 220.590979 
L 309.876509 225.812449 
L 311.390484 221.008696 
L 312.904459 219.337826 
L 314.418434 220.173261 
L 315.932409 188.84444 
L 317.446384 225.394731 
L 318.960359 192.812757 
L 320.474334 201.167109 
L 321.988309 206.806297 
L 323.502284 248.3692 
L 325.016259 211.192332 
L 326.530234 241.059142 
L 328.044209 226.439025 
L 329.558185 239.59713 
L 331.07216 207.641733 
L 332.586135 234.793378 
L 334.10011 209.103744 
L 335.614085 233.331366 
L 337.12806 249.831212 
L 338.642035 224.141579 
L 340.15601 243.983165 
L 341.669985 252.964094 
L 343.18396 259.438717 
L 344.697935 235.211095 
L 346.21191 215.578367 
L 347.725885 236.464248 
L 349.23986 218.711249 
L 350.753835 223.306143 
L 352.26781 214.534073 
L 353.781786 230.407343 
L 355.295761 221.217555 
L 356.809736 231.451637 
L 358.323711 204.50885 
L 359.837686 223.723861 
L 361.351661 211.818909 
L 362.865636 214.116356 
L 364.379611 227.901037 
L 365.893586 248.995777 
L 367.407561 216.413803 
L 368.921536 241.059142 
L 370.435511 241.268001 
L 371.949486 219.337826 
L 373.463461 244.400883 
L 374.977436 233.749084 
L 376.491411 230.407343 
L 378.005387 246.071754 
L 381.033337 226.647884 
L 382.547312 194.274769 
L 384.061287 180.907805 
L 385.575262 174.642041 
L 387.089237 190.306451 
L 388.603212 198.451945 
L 390.117187 182.996393 
L 391.631162 165.869971 
L 393.145137 163.363665 
L 394.659112 164.825677 
L 396.173087 135.794302 
L 397.687062 163.363665 
L 399.201037 166.078829 
L 400.715012 190.724169 
L 402.228988 194.901345 
L 403.742963 176.730629 
L 405.256938 174.224323 
L 406.770913 205.553144 
L 408.284888 208.686027 
L 409.798863 185.29384 
L 411.312838 185.711558 
L 412.826813 207.224015 
L 414.340788 193.857051 
L 415.854763 197.61651 
L 417.368738 188.84444 
L 418.882713 179.028076 
L 420.396688 158.351053 
L 421.910663 163.781382 
L 423.424638 167.958559 
L 424.938613 164.616818 
L 426.452589 169.838288 
L 427.966564 179.863511 
L 429.480539 161.483936 
L 430.994514 136.003161 
L 432.508489 153.129583 
L 434.022464 163.363665 
L 435.536439 167.540841 
L 437.050414 189.888734 
L 438.564389 174.224323 
L 440.078364 155.42703 
L 441.592339 130.363973 
L 443.106314 139.971478 
L 444.620289 137.88289 
L 446.134264 157.515618 
L 447.648239 159.813065 
L 449.162214 145.610666 
L 450.67619 154.382736 
L 452.190165 152.920724 
L 453.70414 159.813065 
L 455.218115 185.084981 
L 456.73209 171.3003 
L 458.246065 180.281228 
L 459.76004 200.331674 
L 461.274015 195.73678 
L 462.78799 198.243086 
L 464.301965 197.407651 
L 465.81594 199.705098 
L 467.329915 178.19264 
L 468.84389 163.781382 
L 470.357865 187.382428 
L 471.87184 180.698946 
L 473.385815 189.471016 
L 474.899791 174.224323 
L 476.413766 184.040687 
L 477.927741 167.958559 
L 479.441716 180.07237 
L 480.955691 185.084981 
L 482.469666 175.686335 
L 483.983641 183.831828 
L 485.497616 180.490087 
L 487.011591 195.73678 
L 488.525566 173.806605 
L 490.039541 145.401807 
L 491.553516 147.908113 
L 493.067491 134.33229 
L 494.581466 132.66142 
L 496.095441 133.079137 
L 497.609416 142.060066 
L 499.123392 132.243702 
L 500.637367 130.572832 
L 502.151342 147.072678 
L 503.665317 152.920724 
L 505.179292 152.294148 
L 506.693267 148.116972 
L 509.721217 102.585751 
L 511.235192 127.022232 
L 512.749167 114.699562 
L 514.263142 111.56668 
L 515.777117 135.794302 
L 517.291092 131.408267 
L 518.805067 143.522078 
L 520.319042 128.901961 
L 521.833017 148.952407 
L 523.346993 128.693102 
L 524.860968 145.192948 
L 526.374943 156.053607 
L 527.888918 143.730937 
L 529.402893 154.800454 
L 530.916868 147.908113 
L 532.430843 148.534689 
L 533.944818 152.920724 
L 535.458793 166.914265 
L 536.972768 163.154806 
L 538.486743 151.249854 
L 540.000718 162.737088 
L 541.514693 162.52823 
L 543.028668 150.623277 
L 544.542643 152.711866 
L 546.056618 147.281537 
L 547.570594 157.306759 
L 549.084569 163.990241 
L 550.598544 170.047147 
L 552.112519 194.483628 
L 553.626494 170.673723 
L 555.140469 154.591595 
L 556.654444 149.578983 
L 559.682394 127.648808 
L 561.196369 170.256006 
L 562.710344 178.401499 
L 564.224319 172.97117 
L 565.738294 165.661112 
L 567.252269 163.990241 
L 568.766244 166.287688 
L 570.280219 146.65496 
L 571.794195 135.794302 
L 573.30817 133.705714 
L 574.822145 130.572832 
L 576.33612 146.65496 
L 577.850095 137.047455 
L 579.36407 128.275385 
L 580.878045 135.167726 
L 582.39202 120.965326 
L 583.905995 131.825985 
L 585.41997 132.243702 
L 586.933945 115.952715 
L 588.44792 122.009621 
L 589.961895 93.187105 
L 591.47587 99.870587 
L 592.989845 104.047763 
L 594.50382 88.80107 
L 596.017796 76.4784 
L 597.531771 109.060374 
L 599.045746 106.554069 
L 600.559721 124.515926 
L 602.073696 122.218479 
L 605.101646 108.851516 
L 606.615621 120.33875 
L 608.129596 111.357821 
L 609.643571 110.104668 
L 611.157546 92.978246 
L 612.671521 96.946563 
L 614.185496 108.433798 
L 615.699471 97.364281 
L 617.213446 98.617434 
L 618.727421 100.706022 
L 620.241397 97.781999 
L 621.755372 104.465481 
L 623.269347 102.168034 
L 624.783322 130.990549 
L 626.297297 115.326139 
L 627.811272 136.420878 
L 629.325247 144.98409 
L 630.839222 131.617126 
L 632.353197 106.762927 
L 633.867172 148.325831 
L 635.381147 127.43995 
L 636.895122 130.990549 
L 638.409097 139.136043 
L 639.923072 136.420878 
L 641.437047 128.901961 
L 642.951022 156.471324 
L 644.464998 163.990241 
L 645.978973 170.256006 
L 647.492948 163.781382 
L 649.006923 154.800454 
L 650.520898 156.889042 
L 652.034873 175.477476 
L 653.548848 168.585135 
L 655.062823 164.407959 
L 656.576798 179.028076 
L 658.090773 171.091441 
L 659.604748 156.262465 
L 661.118723 163.154806 
L 662.632698 174.015464 
L 664.146673 169.211712 
L 665.660648 167.331982 
L 667.174623 179.236934 
L 668.688599 183.622969 
L 670.202574 187.173569 
L 671.716549 181.325523 
L 673.230524 150.414419 
L 674.744499 168.793994 
L 676.258474 171.926876 
L 677.772449 184.458405 
L 679.286424 194.692486 
L 680.800399 201.167109 
L 683.828349 183.414111 
L 685.342324 164.407959 
L 686.856299 166.914265 
L 688.370274 157.097901 
L 689.884249 169.002853 
L 691.398224 178.819217 
L 692.9122 169.211712 
L 694.426175 165.243394 
L 695.94015 140.389196 
L 697.454125 129.319679 
L 698.9681 142.060066 
L 700.482075 150.20556 
L 701.99605 126.395656 
L 703.510025 144.566372 
L 705.024 134.541149 
L 705.024 134.541149 
" style="fill:none;stroke:#4a738c;stroke-linecap:square;stroke-opacity:0.9;stroke-width:1.5;"/>
   </g>
   <g id="patch_3">
    <path d="M 97.92 434.4624 
L 97.92 58.5792 
" style="fill:none;stroke:#000000;stroke-linecap:square;stroke-linejoin:miter;stroke-width:0.8;"/>
   </g>
   <g id="patch_4">
    <path d="M 705.024 434.4624 
L 705.024 58.5792 
" style="fill:none;stroke:#000000;stroke-linecap:square;stroke-linejoin:miter;stroke-width:0.8;"/>
   </g>
   <g id="patch_5">
    <path d="M 97.92 434.4624 
L 705.024 434.4624 
" style="fill:none;stroke:#000000;stroke-linecap:square;stroke-linejoin:miter;stroke-width:0.8;"/>
   </g>
   <g id="patch_6">
    <path d="M 97.92 58.5792 
L 705.024 58.5792 
" style="fill:none;stroke:#000000;stroke-linecap:square;stroke-linejoin:miter;stroke-width:0.8;"/>
   </g>
   <g id="legend_1">
    <g id="patch_7">
     <path d="M 343.579031 38.730555 
L 459.364969 38.730555 
Q 461.364969 38.730555 461.364969 36.730555 
L 461.364969 27.05243 
Q 461.364969 25.05243 459.364969 25.05243 
L 343.579031 25.05243 
Q 341.579031 25.05243 341.579031 27.05243 
L 341.579031 36.730555 
Q 341.579031 38.730555 343.579031 38.730555 
z
" style="fill:#ffffff;opacity:0.8;stroke:#cccccc;stroke-linejoin:miter;"/>
    </g>
    <g id="line2d_20">
     <path d="M 343.579031 31.150868 
L 353.579031 31.150868 
" style="fill:none;stroke:#4a738c;stroke-linecap:square;stroke-opacity:0.9;stroke-width:8;"/>
    </g>
    <g id="line2d_21"/>
    <g id="text_21">
     <!-- C$\alpha$ -->
     <defs>
      <path d="M 64.40625 67.28125 
L 64.40625 56.890625 
Q 59.421875 61.53125 53.78125 63.8125 
Q 48.140625 66.109375 41.796875 66.109375 
Q 29.296875 66.109375 22.65625 58.46875 
Q 16.015625 50.828125 16.015625 36.375 
Q 16.015625 21.96875 22.65625 14.328125 
Q 29.296875 6.6875 41.796875 6.6875 
Q 48.140625 6.6875 53.78125 8.984375 
Q 59.421875 11.28125 64.40625 15.921875 
L 64.40625 5.609375 
Q 59.234375 2.09375 53.4375 0.328125 
Q 47.65625 -1.421875 41.21875 -1.421875 
Q 24.65625 -1.421875 15.125 8.703125 
Q 5.609375 18.84375 5.609375 36.375 
Q 5.609375 53.953125 15.125 64.078125 
Q 24.65625 74.21875 41.21875 74.21875 
Q 47.75 74.21875 53.53125 72.484375 
Q 59.328125 70.75 64.40625 67.28125 
z
" id="DejaVuSans-43"/>
      <path d="M 61.59375 45.296875 
L 45.59375 22.296875 
Q 45.796875 12.203125 46.59375 8.90625 
Q 47.203125 6.09375 51.09375 6.09375 
L 50.703125 4.59375 
L 46.703125 -1 
Q 41.40625 -1 39.5 1.640625 
Q 37.59375 4.296875 37.203125 9.296875 
Q 29.40625 -1 18.5 -1 
Q 12.09375 -1 8.390625 3.34375 
Q 4.703125 7.703125 4.703125 15 
Q 4.703125 26.703125 12.5 36.5 
Q 20.296875 46.296875 30.40625 46.296875 
Q 42.796875 46.296875 45 34 
L 53 45.296875 
z
M 37.59375 26.796875 
Q 37.59375 32.703125 34.9375 35.953125 
Q 32.296875 39.203125 28.296875 39.203125 
Q 23.09375 39.203125 17.890625 32.953125 
Q 12.703125 26.703125 12.703125 16.59375 
Q 12.703125 11.703125 14.890625 8.890625 
Q 17.09375 6.09375 20.59375 6.09375 
Q 24.796875 6.09375 29.34375 10.1875 
Q 33.90625 14.296875 37.203125 22.40625 
Q 37.59375 24.5 37.59375 26.796875 
z
" id="STIXNonUnicode-Italic-e1d8"/>
     </defs>
     <g transform="translate(355.579031 34.650868)scale(0.1 -0.1)">
      <use transform="translate(0 0.78125)" xlink:href="#DejaVuSans-43"/>
      <use transform="translate(69.824219 0.78125)" xlink:href="#STIXNonUnicode-Italic-e1d8"/>
     </g>
    </g>
    <g id="line2d_22">
     <path d="M 372.479031 31.150868 
L 382.479031 31.150868 
" style="fill:none;stroke:#a22c51;stroke-linecap:square;stroke-opacity:0.9;stroke-width:8;"/>
    </g>
    <g id="line2d_23"/>
    <g id="text_22">
     <!-- (Lig) fit on Prot -->
     <defs>
      <path d="M 9.8125 72.90625 
L 19.671875 72.90625 
L 19.671875 8.296875 
L 55.171875 8.296875 
L 55.171875 0 
L 9.8125 0 
z
" id="DejaVuSans-4c"/>
      <path d="M 45.40625 27.984375 
Q 45.40625 37.75 41.375 43.109375 
Q 37.359375 48.484375 30.078125 48.484375 
Q 22.859375 48.484375 18.828125 43.109375 
Q 14.796875 37.75 14.796875 27.984375 
Q 14.796875 18.265625 18.828125 12.890625 
Q 22.859375 7.515625 30.078125 7.515625 
Q 37.359375 7.515625 41.375 12.890625 
Q 45.40625 18.265625 45.40625 27.984375 
z
M 54.390625 6.78125 
Q 54.390625 -7.171875 48.1875 -13.984375 
Q 42 -20.796875 29.203125 -20.796875 
Q 24.46875 -20.796875 20.265625 -20.09375 
Q 16.0625 -19.390625 12.109375 -17.921875 
L 12.109375 -9.1875 
Q 16.0625 -11.328125 19.921875 -12.34375 
Q 23.78125 -13.375 27.78125 -13.375 
Q 36.625 -13.375 41.015625 -8.765625 
Q 45.40625 -4.15625 45.40625 5.171875 
L 45.40625 9.625 
Q 42.625 4.78125 38.28125 2.390625 
Q 33.9375 0 27.875 0 
Q 17.828125 0 11.671875 7.65625 
Q 5.515625 15.328125 5.515625 27.984375 
Q 5.515625 40.671875 11.671875 48.328125 
Q 17.828125 56 27.875 56 
Q 33.9375 56 38.28125 53.609375 
Q 42.625 51.21875 45.40625 46.390625 
L 45.40625 54.6875 
L 54.390625 54.6875 
z
" id="DejaVuSans-67"/>
      <path d="M 37.109375 75.984375 
L 37.109375 68.5 
L 28.515625 68.5 
Q 23.6875 68.5 21.796875 66.546875 
Q 19.921875 64.59375 19.921875 59.515625 
L 19.921875 54.6875 
L 34.71875 54.6875 
L 34.71875 47.703125 
L 19.921875 47.703125 
L 19.921875 0 
L 10.890625 0 
L 10.890625 47.703125 
L 2.296875 47.703125 
L 2.296875 54.6875 
L 10.890625 54.6875 
L 10.890625 58.5 
Q 10.890625 67.625 15.140625 71.796875 
Q 19.390625 75.984375 28.609375 75.984375 
z
" id="DejaVuSans-66"/>
     </defs>
     <g transform="translate(384.479031 34.650868)scale(0.1 -0.1)">
      <use xlink:href="#DejaVuSans-28"/>
      <use x="39.013672" xlink:href="#DejaVuSans-4c"/>
      <use x="94.726562" xlink:href="#DejaVuSans-69"/>
      <use x="122.509766" xlink:href="#DejaVuSans-67"/>
      <use x="185.986328" xlink:href="#DejaVuSans-29"/>
      <use x="225" xlink:href="#DejaVuSans-20"/>
      <use x="256.787109" xlink:href="#DejaVuSans-66"/>
      <use x="291.992188" xlink:href="#DejaVuSans-69"/>
      <use x="319.775391" xlink:href="#DejaVuSans-74"/>
      <use x="358.984375" xlink:href="#DejaVuSans-20"/>
      <use x="390.771484" xlink:href="#DejaVuSans-6f"/>
      <use x="451.953125" xlink:href="#DejaVuSans-6e"/>
      <use x="515.332031" xlink:href="#DejaVuSans-20"/>
      <use x="547.119141" xlink:href="#DejaVuSans-50"/>
      <use x="607.40625" xlink:href="#DejaVuSans-72"/>
      <use x="648.488281" xlink:href="#DejaVuSans-6f"/>
      <use x="709.669922" xlink:href="#DejaVuSans-74"/>
     </g>
    </g>
   </g>
  </g>
  <g id="axes_2">
   <g id="matplotlib.axis_3">
    <g id="ytick_10">
     <g id="line2d_24">
      <defs>
       <path d="M 0 0 
L 3.5 0 
" id="ma100bffe06" style="stroke:#000000;stroke-width:0.8;"/>
      </defs>
      <g>
       <use style="stroke:#000000;stroke-width:0.8;" x="705.024" xlink:href="#ma100bffe06" y="394.148886"/>
      </g>
     </g>
     <g id="text_23">
      <!-- 0.25 -->
      <g style="fill:#a22c51;" transform="translate(712.024 397.948105)scale(0.1 -0.1)">
       <use xlink:href="#DejaVuSans-30"/>
       <use x="63.623047" xlink:href="#DejaVuSans-2e"/>
       <use x="95.410156" xlink:href="#DejaVuSans-32"/>
       <use x="159.033203" xlink:href="#DejaVuSans-35"/>
      </g>
     </g>
    </g>
    <g id="ytick_11">
     <g id="line2d_25">
      <g>
       <use style="stroke:#000000;stroke-width:0.8;" x="705.024" xlink:href="#ma100bffe06" y="353.835373"/>
      </g>
     </g>
     <g id="text_24">
      <!-- 0.50 -->
      <g style="fill:#a22c51;" transform="translate(712.024 357.634592)scale(0.1 -0.1)">
       <use xlink:href="#DejaVuSans-30"/>
       <use x="63.623047" xlink:href="#DejaVuSans-2e"/>
       <use x="95.410156" xlink:href="#DejaVuSans-35"/>
       <use x="159.033203" xlink:href="#DejaVuSans-30"/>
      </g>
     </g>
    </g>
    <g id="ytick_12">
     <g id="line2d_26">
      <g>
       <use style="stroke:#000000;stroke-width:0.8;" x="705.024" xlink:href="#ma100bffe06" y="313.521859"/>
      </g>
     </g>
     <g id="text_25">
      <!-- 0.75 -->
      <g style="fill:#a22c51;" transform="translate(712.024 317.321078)scale(0.1 -0.1)">
       <use xlink:href="#DejaVuSans-30"/>
       <use x="63.623047" xlink:href="#DejaVuSans-2e"/>
       <use x="95.410156" xlink:href="#DejaVuSans-37"/>
       <use x="159.033203" xlink:href="#DejaVuSans-35"/>
      </g>
     </g>
    </g>
    <g id="ytick_13">
     <g id="line2d_27">
      <g>
       <use style="stroke:#000000;stroke-width:0.8;" x="705.024" xlink:href="#ma100bffe06" y="273.208346"/>
      </g>
     </g>
     <g id="text_26">
      <!-- 1.00 -->
      <g style="fill:#a22c51;" transform="translate(712.024 277.007565)scale(0.1 -0.1)">
       <use xlink:href="#DejaVuSans-31"/>
       <use x="63.623047" xlink:href="#DejaVuSans-2e"/>
       <use x="95.410156" xlink:href="#DejaVuSans-30"/>
       <use x="159.033203" xlink:href="#DejaVuSans-30"/>
      </g>
     </g>
    </g>
    <g id="ytick_14">
     <g id="line2d_28">
      <g>
       <use style="stroke:#000000;stroke-width:0.8;" x="705.024" xlink:href="#ma100bffe06" y="232.894832"/>
      </g>
     </g>
     <g id="text_27">
      <!-- 1.25 -->
      <g style="fill:#a22c51;" transform="translate(712.024 236.694051)scale(0.1 -0.1)">
       <use xlink:href="#DejaVuSans-31"/>
       <use x="63.623047" xlink:href="#DejaVuSans-2e"/>
       <use x="95.410156" xlink:href="#DejaVuSans-32"/>
       <use x="159.033203" xlink:href="#DejaVuSans-35"/>
      </g>
     </g>
    </g>
    <g id="ytick_15">
     <g id="line2d_29">
      <g>
       <use style="stroke:#000000;stroke-width:0.8;" x="705.024" xlink:href="#ma100bffe06" y="192.581319"/>
      </g>
     </g>
     <g id="text_28">
      <!-- 1.50 -->
      <g style="fill:#a22c51;" transform="translate(712.024 196.380538)scale(0.1 -0.1)">
       <use xlink:href="#DejaVuSans-31"/>
       <use x="63.623047" xlink:href="#DejaVuSans-2e"/>
       <use x="95.410156" xlink:href="#DejaVuSans-35"/>
       <use x="159.033203" xlink:href="#DejaVuSans-30"/>
      </g>
     </g>
    </g>
    <g id="ytick_16">
     <g id="line2d_30">
      <g>
       <use style="stroke:#000000;stroke-width:0.8;" x="705.024" xlink:href="#ma100bffe06" y="152.267805"/>
      </g>
     </g>
     <g id="text_29">
      <!-- 1.75 -->
      <g style="fill:#a22c51;" transform="translate(712.024 156.067024)scale(0.1 -0.1)">
       <use xlink:href="#DejaVuSans-31"/>
       <use x="63.623047" xlink:href="#DejaVuSans-2e"/>
       <use x="95.410156" xlink:href="#DejaVuSans-37"/>
       <use x="159.033203" xlink:href="#DejaVuSans-35"/>
      </g>
     </g>
    </g>
    <g id="ytick_17">
     <g id="line2d_31">
      <g>
       <use style="stroke:#000000;stroke-width:0.8;" x="705.024" xlink:href="#ma100bffe06" y="111.954292"/>
      </g>
     </g>
     <g id="text_30">
      <!-- 2.00 -->
      <g style="fill:#a22c51;" transform="translate(712.024 115.753511)scale(0.1 -0.1)">
       <use xlink:href="#DejaVuSans-32"/>
       <use x="63.623047" xlink:href="#DejaVuSans-2e"/>
       <use x="95.410156" xlink:href="#DejaVuSans-30"/>
       <use x="159.033203" xlink:href="#DejaVuSans-30"/>
      </g>
     </g>
    </g>
    <g id="ytick_18">
     <g id="line2d_32">
      <g>
       <use style="stroke:#000000;stroke-width:0.8;" x="705.024" xlink:href="#ma100bffe06" y="71.640778"/>
      </g>
     </g>
     <g id="text_31">
      <!-- 2.25 -->
      <g style="fill:#a22c51;" transform="translate(712.024 75.439997)scale(0.1 -0.1)">
       <use xlink:href="#DejaVuSans-32"/>
       <use x="63.623047" xlink:href="#DejaVuSans-2e"/>
       <use x="95.410156" xlink:href="#DejaVuSans-32"/>
       <use x="159.033203" xlink:href="#DejaVuSans-35"/>
      </g>
     </g>
    </g>
    <g id="text_32">
     <!-- Ligand RMSD ($\AA$) -->
     <defs>
      <path d="M 34.28125 27.484375 
Q 23.390625 27.484375 19.1875 25 
Q 14.984375 22.515625 14.984375 16.5 
Q 14.984375 11.71875 18.140625 8.90625 
Q 21.296875 6.109375 26.703125 6.109375 
Q 34.1875 6.109375 38.703125 11.40625 
Q 43.21875 16.703125 43.21875 25.484375 
L 43.21875 27.484375 
z
M 52.203125 31.203125 
L 52.203125 0 
L 43.21875 0 
L 43.21875 8.296875 
Q 40.140625 3.328125 35.546875 0.953125 
Q 30.953125 -1.421875 24.3125 -1.421875 
Q 15.921875 -1.421875 10.953125 3.296875 
Q 6 8.015625 6 15.921875 
Q 6 25.140625 12.171875 29.828125 
Q 18.359375 34.515625 30.609375 34.515625 
L 43.21875 34.515625 
L 43.21875 35.40625 
Q 43.21875 41.609375 39.140625 45 
Q 35.0625 48.390625 27.6875 48.390625 
Q 23 48.390625 18.546875 47.265625 
Q 14.109375 46.140625 10.015625 43.890625 
L 10.015625 52.203125 
Q 14.9375 54.109375 19.578125 55.046875 
Q 24.21875 56 28.609375 56 
Q 40.484375 56 46.34375 49.84375 
Q 52.203125 43.703125 52.203125 31.203125 
z
" id="DejaVuSans-61"/>
      <path d="M 45.40625 46.390625 
L 45.40625 75.984375 
L 54.390625 75.984375 
L 54.390625 0 
L 45.40625 0 
L 45.40625 8.203125 
Q 42.578125 3.328125 38.25 0.953125 
Q 33.9375 -1.421875 27.875 -1.421875 
Q 17.96875 -1.421875 11.734375 6.484375 
Q 5.515625 14.40625 5.515625 27.296875 
Q 5.515625 40.1875 11.734375 48.09375 
Q 17.96875 56 27.875 56 
Q 33.9375 56 38.25 53.625 
Q 42.578125 51.265625 45.40625 46.390625 
z
M 14.796875 27.296875 
Q 14.796875 17.390625 18.875 11.75 
Q 22.953125 6.109375 30.078125 6.109375 
Q 37.203125 6.109375 41.296875 11.75 
Q 45.40625 17.390625 45.40625 27.296875 
Q 45.40625 37.203125 41.296875 42.84375 
Q 37.203125 48.484375 30.078125 48.484375 
Q 22.953125 48.484375 18.875 42.84375 
Q 14.796875 37.203125 14.796875 27.296875 
z
" id="DejaVuSans-64"/>
     </defs>
     <g style="fill:#a22c51;" transform="translate(740.929625 179.7208)rotate(-270)scale(0.16 -0.16)">
      <use transform="translate(0 0.296875)" xlink:href="#DejaVuSans-4c"/>
      <use transform="translate(55.712891 0.296875)" xlink:href="#DejaVuSans-69"/>
      <use transform="translate(83.496094 0.296875)" xlink:href="#DejaVuSans-67"/>
      <use transform="translate(146.972656 0.296875)" xlink:href="#DejaVuSans-61"/>
      <use transform="translate(208.251953 0.296875)" xlink:href="#DejaVuSans-6e"/>
      <use transform="translate(271.630859 0.296875)" xlink:href="#DejaVuSans-64"/>
      <use transform="translate(335.107422 0.296875)" xlink:href="#DejaVuSans-20"/>
      <use transform="translate(366.894531 0.296875)" xlink:href="#DejaVuSans-52"/>
      <use transform="translate(436.376953 0.296875)" xlink:href="#DejaVuSans-4d"/>
      <use transform="translate(522.65625 0.296875)" xlink:href="#DejaVuSans-53"/>
      <use transform="translate(586.132812 0.296875)" xlink:href="#DejaVuSans-44"/>
      <use transform="translate(663.134766 0.296875)" xlink:href="#DejaVuSans-20"/>
      <use transform="translate(694.921875 0.296875)" xlink:href="#DejaVuSans-28"/>
      <use transform="translate(733.935547 0.296875)" xlink:href="#STIXGeneral-Italic-c5"/>
      <use transform="translate(795.035538 0.296875)" xlink:href="#DejaVuSans-29"/>
     </g>
    </g>
   </g>
   <g id="line2d_33">
    <path clip-path="url(#p5aa1430833)" d="M 97.92 434.4624 
L 99.433975 287.398703 
L 100.94795 274.659632 
L 102.461925 279.658508 
L 103.9759 259.501751 
L 105.489875 258.695481 
L 107.00385 295.945168 
L 108.517825 306.265427 
L 110.0318 292.397578 
L 111.545776 239.667503 
L 113.059751 232.41107 
L 114.573726 239.990011 
L 116.087701 244.505124 
L 117.601676 261.598054 
L 119.115651 258.372973 
L 120.629626 234.346119 
L 122.143601 252.245319 
L 123.657576 223.219589 
L 125.171551 227.573449 
L 126.685526 243.860108 
L 128.199501 258.372973 
L 129.713476 274.014616 
L 131.227451 229.508497 
L 132.741426 232.572324 
L 134.255401 205.642897 
L 135.769377 271.918314 
L 137.283352 276.433427 
L 138.797327 241.602551 
L 140.311302 227.089686 
L 141.825277 218.381968 
L 143.339252 277.562205 
L 144.853227 269.176995 
L 146.367202 234.829881 
L 147.881177 235.636151 
L 149.395152 249.020238 
L 150.909127 247.568951 
L 152.423102 202.256562 
L 153.937077 210.964281 
L 155.451052 240.635027 
L 156.965027 276.110919 
L 158.479002 262.888086 
L 159.992978 243.215092 
L 161.506953 276.272173 
L 163.020928 280.14227 
L 164.534903 272.56333 
L 166.048878 265.790659 
L 167.562853 243.053838 
L 169.076828 269.822011 
L 170.590803 257.082941 
L 172.104778 234.023611 
L 173.618753 224.187114 
L 175.132728 257.405449 
L 176.646703 231.766054 
L 178.160678 303.685362 
L 179.674653 247.730205 
L 181.188628 312.554335 
L 182.702603 301.266551 
L 184.216579 285.786162 
L 185.730554 299.008995 
L 187.244529 269.983265 
L 188.758504 223.542097 
L 190.272479 271.434551 
L 191.786454 249.181492 
L 193.300429 268.693232 
L 194.814404 299.008995 
L 196.328379 290.301276 
L 197.842354 272.724584 
L 199.356329 308.36173 
L 200.870304 256.437924 
L 202.384279 253.051589 
L 203.898254 254.180368 
L 205.412229 310.135524 
L 206.926204 339.80627 
L 208.44018 324.809643 
L 209.954155 266.435676 
L 211.46813 290.785038 
L 212.982105 276.755935 
L 216.010055 303.846616 
L 217.52403 281.754811 
L 219.038005 245.956411 
L 220.55198 331.582314 
L 223.57993 227.412195 
L 225.093905 294.010119 
L 226.60788 291.752562 
L 228.121855 272.240822 
L 231.149805 295.138897 
L 232.663781 270.950789 
L 234.177756 352.061578 
L 235.691731 301.589059 
L 237.205706 257.727957 
L 238.719681 280.626032 
L 240.233656 319.488259 
L 241.747631 232.41107 
L 243.261606 271.434551 
L 244.775581 269.822011 
L 246.289556 270.950789 
L 247.803531 254.825384 
L 249.317506 290.623784 
L 250.831481 265.145643 
L 252.345456 270.467027 
L 253.859431 224.187114 
L 255.373406 256.437924 
L 256.887382 268.531978 
L 258.401357 250.794032 
L 259.915332 262.24307 
L 261.429307 263.210595 
L 262.943282 300.299027 
L 264.457257 286.431178 
L 265.971232 294.171373 
L 267.485207 295.461405 
L 268.999182 322.390832 
L 270.513157 283.528605 
L 272.027132 261.920562 
L 273.541107 285.3024 
L 275.055082 279.013492 
L 276.569057 298.363978 
L 278.083032 218.543222 
L 279.597007 308.200476 
L 281.110983 274.820886 
L 282.624958 278.852238 
L 284.138933 240.473773 
L 285.652908 244.021362 
L 287.166883 255.4704 
L 288.680858 190.968778 
L 290.194833 206.771676 
L 291.708808 230.637276 
L 293.222783 306.587935 
L 296.250733 242.570076 
L 297.764708 293.526357 
L 299.278683 235.958659 
L 300.792658 302.879092 
L 302.306633 298.202724 
L 303.820608 263.694357 
L 305.334584 254.825384 
L 306.848559 226.122162 
L 308.362534 232.733578 
L 309.876509 214.350616 
L 312.904459 185.969903 
L 314.418434 185.002378 
L 315.932409 192.903827 
L 317.446384 217.253189 
L 318.960359 195.967654 
L 320.474334 177.262184 
L 321.988309 181.454789 
L 323.502284 174.843373 
L 325.016259 191.452541 
L 326.530234 155.009124 
L 328.044209 167.586941 
L 329.558185 123.080822 
L 331.07216 121.790789 
L 332.586135 124.532108 
L 334.10011 154.525362 
L 335.614085 154.686616 
L 337.12806 159.846746 
L 338.642035 135.658638 
L 340.15601 160.81427 
L 341.669985 137.109924 
L 343.18396 158.234205 
L 344.697935 157.105427 
L 346.21191 104.375351 
L 349.23986 149.687741 
L 350.753835 139.528735 
L 352.26781 126.144649 
L 353.781786 151.622789 
L 355.295761 126.467157 
L 356.809736 130.014746 
L 358.323711 118.081946 
L 359.837686 152.106551 
L 361.351661 114.373103 
L 362.865636 139.528735 
L 364.379611 111.793038 
L 365.893586 111.148022 
L 367.407561 173.392086 
L 368.921536 149.203978 
L 370.435511 146.785168 
L 371.949486 141.947546 
L 373.463461 131.304778 
L 374.977436 199.353989 
L 376.491411 123.080822 
L 378.005387 124.854616 
L 379.519362 149.848995 
L 381.033337 139.528735 
L 382.547312 97.763935 
L 384.061287 106.3104 
L 385.575262 125.499632 
L 387.089237 76.4784 
L 388.603212 136.464908 
L 390.117187 175.165881 
L 391.631162 139.689989 
L 393.145137 127.112173 
L 394.659112 216.124411 
L 396.173087 148.236454 
L 397.687062 153.557838 
L 399.201037 167.103178 
L 400.715012 151.461535 
L 402.228988 148.0752 
L 403.742963 128.885968 
L 405.256938 124.2096 
L 406.770913 147.752692 
L 408.284888 114.050595 
L 409.798863 105.020368 
L 411.312838 85.669881 
L 412.826813 136.303654 
L 414.340788 174.359611 
L 415.854763 130.014746 
L 417.368738 180.648519 
L 420.396688 135.819892 
L 423.424638 150.655265 
L 424.938613 133.562335 
L 426.452589 184.034854 
L 427.966564 166.458162 
L 429.480539 109.212973 
L 430.994514 224.670876 
L 432.508489 235.797405 
L 434.022464 223.058335 
L 435.536439 211.448043 
L 437.050414 221.607049 
L 438.564389 289.011243 
L 440.078364 228.379719 
L 441.592339 327.87347 
L 443.106314 291.752562 
L 444.620289 308.522984 
L 446.134264 216.930681 
L 447.648239 252.567827 
L 449.162214 309.006746 
L 450.67619 293.042595 
L 452.190165 318.198227 
L 453.70414 286.269924 
L 455.218115 344.482638 
L 456.73209 269.822011 
L 458.246065 296.751438 
L 459.76004 293.365103 
L 461.274015 235.958659 
L 462.78799 255.954162 
L 464.301965 252.084065 
L 465.81594 286.592432 
L 467.329915 312.231827 
L 468.84389 291.107546 
L 470.357865 283.367351 
L 471.87184 321.745816 
L 473.385815 306.265427 
L 474.899791 306.749189 
L 476.413766 267.080692 
L 477.927741 307.877968 
L 479.441716 264.984389 
L 480.955691 254.986638 
L 482.469666 310.619286 
L 483.983641 303.040346 
L 485.497616 262.726832 
L 487.011591 252.245319 
L 488.525566 253.696605 
L 490.039541 203.869103 
L 491.553516 242.73133 
L 493.067491 241.763805 
L 494.581466 292.720086 
L 496.095441 258.695481 
L 497.609416 265.629405 
L 499.123392 244.505124 
L 500.637367 279.981016 
L 502.151342 278.52973 
L 503.665317 231.443546 
L 505.179292 298.525232 
L 506.693267 290.946292 
L 508.207242 277.723459 
L 509.721217 214.834378 
L 511.235192 280.787286 
L 512.749167 233.378595 
L 514.263142 273.047092 
L 515.777117 251.116541 
L 517.291092 298.202724 
L 518.805067 257.082941 
L 520.319042 252.890335 
L 521.833017 260.791784 
L 523.346993 249.342746 
L 524.860968 265.951914 
L 526.374943 311.909319 
L 527.888918 286.269924 
L 529.402893 286.269924 
L 530.916868 285.463654 
L 532.430843 227.250941 
L 533.944818 206.449168 
L 535.458793 237.5712 
L 536.972768 250.471524 
L 538.486743 278.045968 
L 540.000718 264.339373 
L 541.514693 255.792908 
L 543.028668 205.965405 
L 544.542643 210.480519 
L 546.056618 229.185989 
L 547.570594 272.240822 
L 549.084569 260.791784 
L 550.598544 239.828757 
L 552.112519 245.472649 
L 553.626494 203.546595 
L 555.140469 248.052714 
L 556.654444 222.252065 
L 558.168419 202.740324 
L 559.682394 241.280043 
L 561.196369 245.956411 
L 562.710344 240.473773 
L 564.224319 248.375222 
L 565.738294 199.999005 
L 567.252269 209.190486 
L 568.766244 261.759308 
L 570.280219 243.053838 
L 571.794195 259.340497 
L 573.30817 204.030357 
L 574.822145 220.47827 
L 576.33612 222.735827 
L 577.850095 221.445795 
L 579.36407 212.738076 
L 580.878045 248.536476 
L 582.39202 263.533103 
L 583.905995 296.751438 
L 585.41997 284.012368 
L 586.933945 223.542097 
L 588.44792 247.730205 
L 589.961895 251.922811 
L 591.47587 239.667503 
L 592.989845 211.448043 
L 594.50382 205.481643 
L 596.017796 248.536476 
L 597.531771 244.827632 
L 599.045746 198.870227 
L 600.559721 203.869103 
L 602.073696 220.800778 
L 603.587671 243.376346 
L 605.101646 219.349492 
L 606.615621 228.863481 
L 608.129596 224.83213 
L 609.643571 165.16813 
L 611.157546 206.287914 
L 612.671521 199.837751 
L 614.185496 200.482768 
L 617.213446 227.895957 
L 618.727421 184.67987 
L 620.241397 213.060584 
L 621.755372 214.350616 
L 623.269347 246.601427 
L 624.783322 225.315892 
L 626.297297 296.912692 
L 627.811272 241.925059 
L 629.325247 279.981016 
L 630.839222 222.090811 
L 632.353197 253.374097 
L 633.867172 250.632778 
L 635.381147 208.54547 
L 636.895122 246.923935 
L 638.409097 238.37747 
L 639.923072 233.056086 
L 641.437047 289.978768 
L 642.951022 276.917189 
L 644.464998 238.37747 
L 645.978973 237.893708 
L 647.492948 174.037103 
L 649.006923 160.491762 
L 650.520898 148.558962 
L 653.548848 207.094184 
L 655.062823 119.694486 
L 656.576798 203.869103 
L 658.090773 169.683243 
L 659.604748 146.301405 
L 661.118723 191.130032 
L 662.632698 186.453665 
L 664.146673 168.876973 
L 665.660648 203.385341 
L 667.174623 186.131157 
L 668.688599 137.432432 
L 670.202574 195.322638 
L 671.716549 199.515243 
L 673.230524 172.585816 
L 674.744499 201.127784 
L 676.258474 182.744822 
L 677.772449 214.834378 
L 679.286424 228.379719 
L 680.800399 229.185989 
L 682.314374 198.547719 
L 683.828349 223.864605 
L 685.342324 222.252065 
L 686.856299 223.864605 
L 688.370274 179.842249 
L 689.884249 194.677622 
L 691.398224 180.971027 
L 692.9122 208.706724 
L 694.426175 200.482768 
L 695.94015 212.093059 
L 697.454125 137.109924 
L 698.9681 161.298032 
L 700.482075 175.649643 
L 701.99605 176.133405 
L 703.510025 178.874724 
L 705.024 167.264432 
L 705.024 167.264432 
" style="fill:none;stroke:#a22c51;stroke-linecap:square;stroke-opacity:0.9;stroke-width:1.5;"/>
   </g>
   <g id="patch_8">
    <path d="M 97.92 434.4624 
L 97.92 58.5792 
" style="fill:none;stroke:#000000;stroke-linecap:square;stroke-linejoin:miter;stroke-width:0.8;"/>
   </g>
   <g id="patch_9">
    <path d="M 705.024 434.4624 
L 705.024 58.5792 
" style="fill:none;stroke:#000000;stroke-linecap:square;stroke-linejoin:miter;stroke-width:0.8;"/>
   </g>
   <g id="patch_10">
    <path d="M 97.92 434.4624 
L 705.024 434.4624 
" style="fill:none;stroke:#000000;stroke-linecap:square;stroke-linejoin:miter;stroke-width:0.8;"/>
   </g>
   <g id="patch_11">
    <path d="M 97.92 58.5792 
L 705.024 58.5792 
" style="fill:none;stroke:#000000;stroke-linecap:square;stroke-linejoin:miter;stroke-width:0.8;"/>
   </g>
  </g>
 </g>
 <defs>
  <clipPath id="p5aa1430833">
   <rect height="375.8832" width="607.104" x="97.92" y="58.5792"/>
  </clipPath>
 </defs>
</svg>
